<?xml version="1.0" standalone="no"?><!DOCTYPE svg PUBLIC "-//W3C//DTD SVG 1.1//EN" "http://www.w3.org/Graphics/SVG/1.1/DTD/svg11.dtd" ><svg xmlns="http://www.w3.org/2000/svg"><metadata></metadata><defs><font id="FontForge 2.0 : Swei Spring Sugar CJKtc Regular : 17-4-2020" horiz-adv-x="1000"><font-face font-family="Swei Spring Sugar CJKtc" font-weight="400" font-stretch="normal" units-per-em="1000" panose-1="2 0 10 3 0 0 0 0 0 0" ascent="1160" descent="-320" x-height="0" bbox="-84 -279 983 880" underline-thickness="0" underline-position="-100" unicode-range="U+0022-fa08" /><missing-glyph horiz-adv-x="1000" d="M100 -120 l0 1000 l800 0 l0 -1000 l-800 0 ZM500 421 l318 409 l-636 0 l318 -409 ZM532 380 l318 -409 l0 818 l-318 -409 ZM182 -70 l636 0 l-318 409 l-318 -409 ZM150 789 l0 -818 l318 409 l-318 409 Z" /><glyph glyph-name="quotedbl" unicode="&quot;" d="M140 749 q0 -22 -6 -73 q-10 -84 -11 -98 l-11 -104 l-40 0 l-12 104 q-1 14 -6 56 q-5 42 -6.5 56 q-1.5 14 -2.5 25 q-2 23 -2 34 q0 32 15 47 q12 12 34 12 q21 0 33 -12 q15 -15 15 -47 ZM230 796 q12 12 34 12 q21 0 33 -12 q15 -15 15 -47 q0 -22 -5.5 -67 q-5.5 -45 -7.5 -62 q0 0 -15 -146 l-40 0 l-12 104 q-1 14 -9 81.5 q-8 67.5 -8 89.5 q0 32 15 47 Z" /><glyph glyph-name="quotesingle" unicode="&#39;" d="M140 749 q0 -22 -6 -73 q-10 -84 -11 -98 l-11 -104 l-40 0 l-12 104 q-1 14 -6 56 q-5 42 -6.5 56 q-1.5 14 -2.5 25 q-2 23 -2 34 q0 32 15 47 q12 12 34 12 q21 0 33 -12 q15 -15 15 -47 Z" /><glyph glyph-name="comma" unicode="," d="M97 53 q0 26 17 44 q16 15 41 15 q30 0 57 -26 q12 -35 12 -71 q0 -81 -51 -151 q-50 -70 -124 -103 l-6 -3 l-18 36 l5 3 q110 63 134 167 q-35 27 -38 30 q-29 27 -29 59 Z" /><glyph glyph-name="hyphen" unicode="-&#x2011;" d="M36 237 l0 65 l264 0 l0 -65 l-264 0 Z" /><glyph glyph-name="period" unicode="." d="M209 93 q20 -20 20 -47 q0 -27 -19.5 -46.5 q-19.5 -19.5 -47 -19.5 q-27.5 0 -47 19.5 q-19.5 19.5 -19.5 45.5 q0 28 20 48 q22 22 55 18 q23 -2 38 -18 Z" /><glyph glyph-name="slash" unicode="/" d="M336 775 l9 0 l-292 -955 l-60 0 l294 955 l49 0 Z" /><glyph glyph-name="three" unicode="3" d="M404 195.5 q0 75.5 -44.5 118 q-44.5 42.5 -131.5 42.5 l-57 0 l0 53 l51 0 q77 0 121 44 q40 40 40 108 q0 67 -37 104 q-34 34 -96 34 q-36 0 -68 -11 l-20 -62 q-10 -30 -22 -42 q-12 -12 -33 -12 q-35 0 -47 35 l0 2 q17 69 73 105 q56 35 130 35 q96 0 152 -56 q51 -51 51 -129 q0 -75 -53 -128 q-32 -32 -80 -50 q70 -18 110 -63 q46 -52 46 -132 q0 -94 -67 -153 q-67 -59 -172 -59 q-106 0 -162 57 q-34 33 -47 88 q12 37 48 37 q21 0 33 -15 q10 -13 21 -43 l21 -62 q35 -12 74 -12 q78 0 122 45.5 q44 45.5 44 121 Z" /><glyph glyph-name="four" unicode="4" d="M327 293 l0 338 l-235 -338 l235 0 ZM527 293 l0 -64 l-121 0 l0 -236 l-79 0 l0 236 l-303 0 l0 48 l0 2 l327 464 l55 0 l0 -450 l121 0 Z" /><glyph glyph-name="colon" unicode=":" d="M162.5 401 q-27.5 0 -47 19.5 q-19.5 19.5 -19.5 45.5 q0 28 19 47 q19 19 47 19 q28 0 47.5 -19.5 q19.5 -19.5 19.5 -46.5 q0 -27 -19.5 -46 q-19.5 -19 -47 -19 ZM209 93 q20 -20 20 -47 q0 -27 -19.5 -46.5 q-19.5 -19.5 -47 -19.5 q-27.5 0 -47 19.5 q-19.5 19.5 -19.5 45.5 q0 28 20 48 q22 22 55 18 q23 -2 38 -18 Z" /><glyph glyph-name="semicolon" unicode=";" d="M162.5 401 q-27.5 0 -47 19.5 q-19.5 19.5 -19.5 45.5 q0 28 19 47 q19 19 47 19 q28 0 47.5 -19.5 q19.5 -19.5 19.5 -46.5 q0 -27 -19.5 -46 q-19.5 -19 -47 -19 ZM97 53 q0 26 17 44 q16 15 41 15 q30 0 57 -26 q12 -35 12 -71 q0 -81 -51 -151 q-50 -70 -124 -103 l-6 -3 l-18 36 l5 3 q110 63 134 167 q-35 27 -38 30 q-29 27 -29 59 Z" /><glyph glyph-name="equal" unicode="=" d="M544 222 l-514 0 l0 58 l514 0 l0 -58 ZM544 438 l-514 0 l0 59 l514 0 l0 -59 Z" /><glyph glyph-name="bracketleft" unicode="[" d="M301 -132 l0 -47 l-200 0 q3 118 3 350 l0 259 q0 229 -3 350 l200 0 l0 -47 l-123 -10 q-2 -98 -2 -293 l0 -259 q0 -193 2 -292 l123 -11 Z" /><glyph glyph-name="bracketright" unicode="]" d="M232 430 l0 -259 q0 -229 3 -350 l-200 0 l0 47 l123 11 q3 97 3 292 l0 259 q0 193 -3 293 l-123 10 l0 6 l0 41 l200 0 q-3 -118 -3 -350 Z" /><glyph glyph-name="a" unicode="a" d="M244 244 q-56 -22 -85 -51 q-29 -29 -29 -66 q0 -40 24 -61 q24 -21 65 -21 q33 0 62 15.5 q29 15.5 76 57.5 l0 160 q-62 -14 -113 -34 ZM542 30 q-34 -49 -87 -49 q-59 0 -84 53 q-6 14 -10 32 q-45 -45 -81 -66 q-36 -21 -87 -21 q-68 0 -110 42 q-36 36 -36 96 q0 57 40 96.5 q40 39.5 137 73.5 q58 19 133 36 l0 27 q0 82 -27 109 q-24 24 -79 24 q-35 0 -73 -14 l-20 -69 q-5 -20 -17.5 -32.5 q-12.5 -12.5 -34 -12.5 q-21.5 0 -32.5 11 q-11 11 -13 31 q17 64 71 99.5 q54 35.5 134 35.5 q87 0 129 -43 q42 -43 42 -139 l0 -238 q0 -52 15 -67 q9 -9 24 -9 q18 0 39 21 l5 5 l25 -27 l-3 -5 Z" /><glyph glyph-name="c" unicode="c" d="M291 -21 q-124 0 -193 91 q-55 73 -55 185 q0 125 76 202 q76 75 179 75 q69 0 121 -36 q53 -37 70 -100 q-7 -40 -46 -40 q-41 0 -53 44 l-22 70 q-31 13 -66 13 q-78 0 -126.5 -59.5 q-48.5 -59.5 -48.5 -161.5 q0 -110 60 -171 q49 -48 121 -48 q95 0 152 76 l4 5 l29 -16 l-3 -6 q-55 -123 -199 -123 Z" /><glyph glyph-name="d" unicode="d" d="M422 108 l0 302 q-67 63 -130 63 q-71 0 -116 -54 q-46 -56 -46 -167 q0 -107 44 -161 q43 -53 115.5 -53 q72.5 0 132.5 70 ZM282 532 q79 0 141 -64 l0 259 l-94 5 l0 37 l0 6 l155 35 l21 -11 l-3 -156 l0 -599 l98 -9 l0 -42 l-174 -9 l-2 66 q-63 -71 -153 -71 q-101 0 -163.5 76.5 q-62.5 76.5 -62.5 194.5 q0 139 80 219 q63 63 157 63 Z" /><glyph glyph-name="e" unicode="e" d="M418 348 q0 59 -41 100 q-35 35 -88 35 q-60 0 -105 -50 q-44 -48 -52 -130 l246 -1 q23 0 31.5 10.5 q8.5 10.5 8.5 35.5 ZM311 43 q92 0 154 72 l4 4 l29 -21 l-3 -5 q-31 -54 -83.5 -84 q-52.5 -30 -118.5 -30 q-109 0 -179 73 q-69 73 -69 202 q0 123 72 200 q73 78 176 78 q91 0 148 -58.5 q57 -58.5 57 -151.5 q0 -40 -7 -62 l-2 -5 l-359 0 q3 -109 57 -163 q49 -49 124 -49 Z" /><glyph glyph-name="f" unicode="f" d="M128 463 l-98 0 l0 41 l0 6 l98 10 q6 86 23.5 142 q17.5 56 54.5 94 q60 65 145 65 q48 0 76 -20 q19 -14 25 -36 q-1 -20 -16 -33 q-15 -13 -39 -13 q-36 0 -77 35 l-22 17 q-29 -13 -48 -42 q-43 -63 -43 -211 l160 0 l0 -55 l-159 0 l0 -236 q0 -59 2 -181 l104 -11 l0 -42 l-283 0 l0 42 l94 11 q3 90 3 181 l0 236 Z" /><glyph glyph-name="g" unicode="g" d="M256 208 q54 0 86.5 39 q32.5 39 32.5 101 q0 70 -38 108 q-30 30 -78 30 q-53 0 -85 -38 q-32 -40 -32 -101 q0 -70 39 -109 q30 -30 75 -30 ZM168 -15 q-51 -44 -51 -97 q0 -51 39 -78 q40 -27 112 -27 q109 0 159 50 q28 28 28 65.5 q0 37.5 -20 57.5 q-25 25 -84 25 l-128 0 q-32 0 -55 4 ZM140 194 q-77 49 -77 153 q0 85 54.5 135 q54.5 50 140.5 50 q79 0 130 -39 l123 37 l22 -15 l0 -65 l-107 1 q27 -42 27 -104 q0 -85 -55 -135 q-54 -50 -140 -50 q-45 0 -81 14 q-35 -42 -35 -73 q0 -46 73 -46 l148 0 q88 0 131 -42 q35 -36 35 -97 q0 -76 -69.5 -131.5 q-69.5 -55.5 -192.5 -55.5 q-134 0 -194 59 q-35 36 -35 86 q0 71 91 122 q-56 23 -56 77.5 q0 54.5 67 118.5 Z" /><glyph glyph-name="i" unicode="i" d="M161.5 661 q-27.5 0 -45 17.5 q-17.5 17.5 -17.5 43.5 q0 28 18 45 q18 17 45 17 q28 0 47 -19 q17 -17 17 -43 q0 -6 -1 -12 q-1 -6 -3 -11 q-5 -12 -15 -21 q-18 -17 -45.5 -17 ZM206 227 q0 -75 2 -181 l80 -11 l0 -42 l-252 0 l0 42 l89 11 q2 106 2 181 l0 55 q0 79 -3 155 l-93 8 l0 6 l0 29 l0 5 l158 46 l19 -15 l-2 -140 l0 -149 Z" /><glyph glyph-name="j" unicode="j" d="M202 124 q0 -159 -11 -226 q-13 -77 -63 -127 q-50 -50 -120 -50 q-42 0 -65 15 l-14 10 q-11 12 -13 28 q13 42 59 42 q32 0 74 -26 q0 0 18 -13 q17 12 28 31 q29 60 29 291 l0 182 q0 88 -3 156 l-92 8 l0 6 l0 29 l0 5 l156 46 l20 -14 l-3 -141 l0 -252 ZM207 680 q-19 -19 -46 -19 q-29 0 -46.5 17.5 q-17.5 17.5 -17.5 43.5 q0 28 18 45 q18 17 45.5 17 q27.5 0 45.5 -18 q18 -18 18 -43.5 q0 -25.5 -17 -42.5 Z" /><glyph glyph-name="l" unicode="l" d="M204 227 q0 -67 2 -181 l93 -11 l0 -42 l-274 0 l0 42 l96 11 q2 114 2 181 l0 500 l-92 5 l0 37 l0 6 l155 35 l21 -11 l-3 -158 l0 -414 Z" /><glyph glyph-name="m" unicode="m" d="M520 434 q87 98 195 98 q60 0 96 -35 q47 -48 47 -158 l0 -112 q0 -75 2 -181 l81 -11 l0 -42 l-252 0 l0 42 l87 11 q2 106 2 181 l0 105 q0 73 -23 102 q-21 29 -66 29 q-77 0 -159 -82 q2 -30 2 -48 l0 -106 q0 -75 2 -181 l81 -11 l0 -42 l-251 0 l0 42 l86 11 q2 106 2 181 l0 104 q0 82 -29 112 q-21 20 -57 20 q-74 0 -159 -84 l0 -152 q0 -75 2 -181 l80 -11 l0 -42 l-252 0 l0 42 l88 11 q2 106 2 181 l0 54 q0 88 -3 156 l-92 6 l0 36 l0 5 l147 47 l19 -14 l6 -81 q92 96 188 96 q100 0 128 -98 Z" /><glyph glyph-name="n" unicode="n" d="M204 435 q94 97 197 97 q72 0 107 -48 q35 -48 35 -151 l0 -106 q0 -75 2 -181 l80 -11 l0 -42 l-251 0 l0 42 l87 11 q2 106 2 181 l0 104 q0 82 -28 111 q-22 21 -62 21 q-79 0 -166 -83 l0 -153 q0 -75 2 -181 l80 -11 l0 -42 l-252 0 l0 42 l88 11 q2 106 2 181 l0 54 q0 87 -3 156 l-92 6 l0 36 l0 5 l147 47 l19 -14 l6 -82 Z" /><glyph glyph-name="o" unicode="o" d="M294.5 532 q101.5 0 175.5 -74 q74 -74 74 -203 q0 -132 -74 -204 q-75 -72 -177 -72 q-103 0 -175.5 72.5 q-72.5 72.5 -72.5 202.5 q0 130 74 204 q74 74 175.5 74 ZM294 29 q75 0 118 58 q44 58 44 167 q0 128 -61 189 q-40 40 -101 40 q-75 0 -118 -60 q-43 -60 -43 -169 q0 -127 58 -185 q40 -40 103 -40 Z" /><glyph glyph-name="p" unicode="p" d="M342 38 q68 0 111.5 53.5 q43.5 53.5 43.5 161.5 q0 125 -57 183 q-38 37 -92 37 q-69 0 -140 -66 l0 -309 q61 -60 134 -60 ZM505 476 q77 -77 77 -219 q0 -125 -63.5 -201.5 q-63.5 -76.5 -162.5 -76.5 q-87 0 -150 64 l0 -75 q0 -66 2 -182 l103 -12 l0 -43 l-277 0 l0 37 l0 6 l92 12 q2 114 2 180 l0 313 q0 89 -3 158 l-92 6 l0 36 l0 5 l146 47 l20 -14 l5 -59 q69 74 164 74 q81 0 137 -56 Z" /><glyph glyph-name="r" unicode="r" d="M315 463 q-69 -39 -108 -144 l0 -92 q0 -73 2 -181 l94 -11 l0 -42 l-265 0 l0 42 l87 11 q2 106 2 181 l0 54 q0 87 -3 156 l-92 6 l0 36 l0 5 l147 47 l19 -14 l7 -107 q24 49 61 81 q47 41 100 41 q61 0 81 -39 l1 -1 l0 -2 q0 -35 -15.5 -50.5 q-15.5 -15.5 -42.5 -15.5 q-32 0 -66 32 l-9 7 Z" /><glyph glyph-name="s" unicode="s" d="M136 400.5 q0 -33.5 21.5 -54 q21.5 -20.5 76.5 -40.5 l43 -15 q78 -29 112 -66 q34 -37 34 -91 q0 -66 -53.5 -110.5 q-53.5 -44.5 -152.5 -44.5 q-80 0 -162 39 l-4 1 l-3 126 l55 0 l21 -98 q40 -18 94 -18 q72 0 105 33 q22 22 22 56 q0 16 -4 26 q-7 17 -18 28 q-23 22 -80 42 l-49 18 q-136 50 -136 150 q0 65 50 107.5 q50 42.5 136 42.5 q77 0 152 -45 l3 -2 l-3 -116 l-47 0 l-6 0 l-16 92 q-57 21 -84 22 q-58 0 -86 -28 q-21 -21 -21 -54.5 Z" /><glyph glyph-name="t" unicode="t" d="M107 108 q0 0 1 88 l0 267 l-102 0 l0 41 l0 6 l105 9 l21 152 l62 0 l-5 -153 l150 0 l0 -55 l-151 0 l0 -347 q0 -48 20 -68 q14 -14 40 -14 q33 0 73 26 l6 3 l24 -32 q-6 -8 -9 -11 q-42 -41 -113 -41 q-59 0 -90.5 31.5 q-31.5 31.5 -31.5 97.5 Z" /><glyph glyph-name="v" unicode="v" d="M541 518 l0 -44 l-68 -11 l-178 -476 l-5 0 l-35 0 l-5 0 l-191 478 l-70 9 l0 6 l0 38 l254 0 l0 -44 l-92 -10 l137 -366 l128 365 l-89 11 l0 44 l214 0 Z" /><glyph glyph-name="y" unicode="y" d="M553 518 l0 -43 l-67 -9 l-187 -500 q-93 -245 -218 -245 q-44 0 -73 22 q-21 16 -24 42 q12 41 65 41 q36 0 75 -35 q0 0 5 -5 q67 44 112 161 l12 31 l-194 489 l-70 8 l0 6 l0 37 l253 0 l0 -43 l-92 -10 l141 -380 l137 380 l-94 10 l0 43 l219 0 Z" /><glyph glyph-name="braceleft" unicode="{" d="M139 301 q89 -29 89 -128 q0 -22 -16.5 -93.5 q-16.5 -71.5 -16.5 -117.5 q0 -43 20 -63 l3 -3 q25 -20 89 -25 l41 -2 l0 -48 l-51 0 q-135 0 -165 85 q-9 24 -9 55 q0 47 23.5 122.5 q23.5 75.5 23.5 97.5 q0 36 -22 58 q-31 31 -106 38 l-6 1 l0 45 l6 1 q101 9 122 64 q6 14 6 34 q0 20 -23.5 95 q-23.5 75 -23.5 123 q0 62 35 97 q43 43 139 43 l51 0 l0 -48 l-41 -2 q-64 -5 -89 -25 q-7 -7 -11 -13.5 q-4 -6.5 -7 -14.5 q-5 -16 -5 -38 q0 -46 16.5 -117.5 q16.5 -71.5 16.5 -93.5 q0 -99 -89 -127 Z" /><glyph glyph-name="braceright" unicode="}" d="M234 301 q-89 28 -89 127 q0 22 16.5 93.5 q16.5 71.5 16.5 115.5 q0 49 -24 68.5 q-24 19.5 -88 24.5 l-41 2 l0 48 l51 0 q96 0 139 -43 q35 -35 35 -97 q0 -48 -24 -124 q-23 -74 -23 -95 q0 -9 1.5 -17.5 q1.5 -8.5 4.5 -15.5 q21 -55 122 -64 l6 -1 l0 -45 l-6 -1 q-75 -7 -106 -38 q-22 -22 -22 -58 q0 -5 1.5 -13.5 q1.5 -8.5 4.5 -20.5 q6 -25 15.5 -56.5 q9.5 -31.5 14.5 -53.5 q11 -44 11 -76 q0 -62 -35 -97 q-43 -43 -139 -43 l-51 0 l0 48 l41 2 q69 5 92 28 q20 20 20 64.5 q0 44.5 -16.5 116 q-16.5 71.5 -16.5 93.5 q0 99 89 128 Z" /><glyph glyph-name="Identity.9989" unicode="&#x4f53;" d="M234 571 l0 -629 q-1 -4 -5 -8 q-4 -4 -15 -9 q-15 -9 -31 -9 l-18 0 l0 544 q-50 -86 -108 -150 l-26 16 l4 6 q60 93 116 229 q55 136 92 285 l68 -35 q-38 -140 -77 -240 ZM639 638 l311 0 l0 -43 l-282 0 q49 -134 131 -250 q84 -119 178 -180 l4 -3 l-6 -20 l-4 0 q-33 -3 -49 -39 l-3 -9 q-25 22 -42 38 q-71 72 -132.5 180 q-61.5 108 -101.5 242 l-4 -387 l192 0 l0 -44 l-192 0 l0 -179 q0 -11 -18 -18 q-15 -8 -31 -8 l-18 0 l0 205 l-170 0 l-10 44 l180 0 l0 341 q-99 -251 -302 -418 l-5 -5 l-22 24 q10 10 15 15 q91 91 161 213.5 q70 122.5 112 257.5 l-243 0 l-12 43 l296 0 l0 203 l67 -12 l0 -191 Z" /><glyph glyph-name="Identity.10034" unicode="&#x4f73;" d="M572 653 l-210 0 l-12 43 l222 0 l0 146 l68 -11 l0 -135 l267 0 l0 -43 l-267 0 l0 -183 l319 0 l0 -44 l-649 0 l-12 44 l274 0 l0 183 ZM244 573 l0 -629 q-2 -7 -13 -13 q-3 -1 -7 -3 q-25 -9 -31 -9 q-1 0 -1 0 l-16 0 l0 552 q-56 -87 -120 -152 l-4 -4 l-25 17 l4 6 q67 92 131 226 q64 135 108 283 l63 -38 q-41 -134 -89 -236 ZM972 2 l0 -43 l-684 0 l-12 43 l296 0 l0 204 l-230 0 l-12 43 l242 0 l0 177 l68 -11 l0 -166 l288 0 l0 -43 l-288 0 l0 -204 l332 0 Z" /><glyph glyph-name="Identity.10195" unicode="&#x4fd7;" d="M687 823 q170 -72 222 -162 q15 -27 15 -45 q0 -6 -1 -10 q-2 -13 -11 -22 q-9 -9 -21 -9 q-12 0 -29 10 q-24 47 -79 106 q-56 61 -121 119 l21 15 l4 -2 ZM323 544 l-20 21 q14 13 23 22 q43 43 85 102 q52 72 80 131 l4 8 l60 -53 q-20 -35 -43 -64 q-26 -33 -58 -64 q-62 -60 -131 -103 ZM236 570 l0 -626 q-2 -4 -5.5 -8 q-3.5 -4 -15.5 -9 q-24 -8 -30 -8 q-1 0 -1 0 l-16 0 l0 544 q-52 -78 -118 -146 l-25 17 l4 6 q68 92 131 225 q63 133 106 281 l64 -36 q-40 -134 -94 -240 ZM464 251 l0 -215 l314 0 l0 215 l-314 0 ZM846 295 l0 -350 q-1 -4 -5 -8 q-4 -4 -16 -9 q-25 -9 -31 -9 q-1 0 -1 0 l-15 0 l0 73 l-314 0 l0 -48 q0 -4 -2.5 -6.5 q-2.5 -2.5 -7.5 -5.5 q-8 -5 -19 -8 q-18 -4 -20.5 -4 q-2.5 0 -2.5 0 l-16 0 l0 407 l68 -32 l382 0 ZM578 663 l116 -27 q-2 -11 -4 -14 q-8 -11 -27 -15 q45 -78 125 -146 q86 -70 195 -119 l-4 -24 q-13 -2 -20 -6 q-7 -4 -16.5 -13.5 q-9.5 -9.5 -13.5 -23.5 l-3 -9 l-8 5 q-97 60 -175 144 q-71 79 -110 170 q-50 -96 -143 -186 q-99 -97 -213 -154 l-5 -3 l-17 24 q38 25 62 44 q39 32 71.5 64.5 q32.5 32.5 66.5 72.5 q94 114 121 210 l2 6 Z" /><glyph glyph-name="Identity.10932" unicode="&#x5171;" d="M72 -84 l-18 25 l7 4 q100 58 190 148 q60 60 96 115 l5 7 l51 -54 q-25 -33 -53 -61 q-40 -40 -92 -78 q-88 -63 -186 -106 ZM918 -45 q0 -15 -9 -24 q-9 -9 -20 -9 q-11 0 -27 8 q-32 54 -110.5 123.5 q-78.5 69.5 -162.5 125.5 l19 20 q217 -85 287 -187 q23 -34 23 -57 ZM628 562 l-256 0 l0 -263 l256 0 l0 263 ZM965 299 l0 -44 l-916 0 l-13 44 l269 0 l0 263 l-226 0 l-13 44 l239 0 l0 233 l67 -14 l0 -219 l256 0 l0 233 l68 -14 l0 -219 l241 0 l0 -44 l-241 0 l0 -263 l269 0 Z" /><glyph glyph-name="Identity.14210" unicode="&#x5947;" d="M104 691 l-13 44 l350 0 q15 46 20 101 l1 8 l69 -20 q-6 -57 -16 -89 l393 0 l0 -44 l-411 0 q-5 -11 -11 -20 q211 -33 283 -112 q23 -26 23 -47 q0 -11 -6 -21 l-4 -5 q-8 -8 -21 -8 q-8 0 -19 4 l-9 10 q-36 35 -103 74 q-72 43 -165 73 q-99 -124 -361 -174 l-5 -1 l-12 28 l8 2 q250 58 326 197 l-317 0 ZM261 288 l0 -151 l220 0 l0 151 l-220 0 ZM548 331 l0 -263 q-1 -4 -5 -8 q-5 -5 -19.5 -11.5 q-14.5 -6.5 -28.5 -6.5 l-14 0 l0 52 l-220 0 l0 -62 q-1 -7 -8 -12 q-19 -13 -43 -13 l-15 0 l0 355 l66 -31 l287 0 ZM963 455 l0 -43 l-187 0 l0 -400 q0 -42 -22.5 -64.5 q-22.5 -22.5 -84.5 -28.5 l-7 -1 q-2 16 -5 23.5 q-3 7.5 -7 10.5 q-4 5 -7 7 q-30 13 -102 22 l0 29 l148 -10 q12 0 16 3 q3 3 3 11 l0 398 l-659 0 l-14 43 l928 0 Z" /><glyph glyph-name="Identity.14323" unicode="&#x597d;" d="M126 297 q75 -34 140 -74 q55 136 68 320 q-30 -6 -39.5 -7.5 q-9.5 -1.5 -19.5 -2.5 q-20 -4 -39 -7 l-50 -7 q-31 -129 -60 -222 ZM434 44 q0 -21 -16 -28 q-16 -8 -40 5 q-27 44 -97 106 q-84 -133 -229 -210 l-4 -3 l-24 22 l8 5 q131 81 205 222 q-78 66 -176 129 q23 73 56 217 l-26 -3 q-10 -17 -27 -22 l-6 -1 l-36 88 q77 3 110 5 q37 177 48 277 l68 -24 q-15 -106 -47 -248 q43 3 136 11 q3 78 3 104 l0 9 l70 -19 q-1 -43 -1.5 -56 q-0.5 -13 -0.5 -17 q-1 -7 -1 -13 l82 9 l1 -31 q-8 -3 -85 -20 q-20 -225 -89 -368 q106 -76 117 -135 q1 -6 1 -11 ZM967 408 l0 -44 l-250 0 l0 -352 q0 -47 -21 -68 q-21 -21 -81 -27 l-7 -1 q-3 21 -8 29 q-4 8 -12 12 q-22 15 -90 23 l0 32 l134 -10 q12 0 16 4 q2 2 2 10 l0 348 l-221 0 l-12 44 l233 0 l0 165 l51 -6 q44 50 104 140 l-342 0 l-13 44 l450 0 l0 -47 q-107 -102 -157 -142 l10 -1 q-2 -11 -3 -14 q-1 -3 -3 -6 q-2 -3 -4.5 -5.5 q-2.5 -2.5 -5 -4.5 q-2.5 -2 -5.5 -3 q-7 -3 -15 -5 l0 -115 l250 0 Z" /><glyph glyph-name="Identity.15636" unicode="&#x5b87;" d="M573 726 q0 -22 -18 -35 q-9 -7 -20 -7 q-13 0 -30 13 q-8 45 -47 95 q-14 18 -31 33 l-6 6 l21 15 q68 -22 100 -54 q19 -19 27 -42 q4 -13 4 -24 ZM924 688 l0 -49 q-53 -72 -116 -117 l-4 -2 l-24 13 q25 43 53 111 l-645 0 q-3 -83 -60 -122 q-33 -15 -43 -15 q0 0 -1 0 q-26 0 -35 20 q-5 9 -5 18 q0 23 31 40 q31 18 52 58 q18 34 18 72 q0 7 -2 22 l32 1 q8 -28 11 -50 l738 0 ZM949 330 l0 -44 l-415 0 l0 -269 q0 -44 -24 -68 q-22 -22 -82 -28 l-7 -1 l-1 7 q-3 25 -18 34 q-25 14 -101 23 l0 30 q123 -8 141 -8 q18 0 21 3 q3 3 3 10 l0 267 l-410 0 l-13 44 l423 0 l0 159 l-268 0 l-12 44 l615 0 l0 -44 l-267 0 l0 -159 l415 0 Z" /><glyph glyph-name="Identity.15674" unicode="&#x5b99;" d="M573 727 q0 -22 -18 -35 q-21 -16 -48 3 l-2 2 q-6 33 -28 68 q-22 36 -50 60 l-6 5 l21 16 q68 -21 100 -53 q19 -19 27 -42 q4 -13 4 -24 ZM536 214 l0 -181 l216 0 l0 181 l-216 0 ZM469 214 l-217 0 l0 -181 l217 0 l0 181 ZM469 258 l0 161 l-217 0 l0 -161 l217 0 ZM752 258 l0 161 l-216 0 l0 -161 l216 0 ZM820 463 l0 -510 q-1 -5 -5.5 -9 q-4.5 -4 -16.5 -9 q-24 -9 -30 -9 q-1 0 -1 0 l-15 0 l0 63 l-500 0 l0 -43 q0 -9 -16.5 -17.5 q-16.5 -8.5 -34.5 -8.5 l-16 0 l0 575 l67 -32 l217 0 l0 161 l67 -14 l0 -147 l284 0 ZM925 688 l0 -49 q-53 -68 -121 -119 l-25 13 q31 52 55 111 l-646 0 q-3 -83 -60 -122 q-33 -15 -43 -15 q0 0 -1 0 q-26 0 -35 20 q-5 9 -5 18 q0 23 31 40 q31 18 52 58 q18 34 18 72 q0 7 -2 22 l32 1 q8 -28 11 -50 l739 0 Z" /><glyph glyph-name="Identity.16656" unicode="&#x5d69;" d="M151 657 l0 152 l66 -12 l0 -96 l249 0 l0 142 l66 -12 l0 -130 l254 0 l0 108 l66 -12 l0 -157 q0 -10 -18 -19 q-14 -7 -31 -7 l-17 0 l0 43 l-635 0 ZM362 148 l0 -65 l269 0 l0 65 l-269 0 ZM697 192 l0 -171 q-1 -4 -5 -8 q-5 -5 -14 -9 q-18 -9 -33 -9 l-14 0 l0 44 l-269 0 l0 -31 q0 -4 -4 -8 q-4 -4 -17.5 -9.5 q-13.5 -5.5 -28.5 -5.5 l-15 0 l0 237 l65 -30 l335 0 ZM885 279 l0 -270 q0 -42 -18 -62 l-2 -2 q-19 -19 -71 -24 l-7 -1 l-1 7 q-3 22 -12 31 q-17 15 -69 20 l-6 1 l0 30 q87 -7 100 -7 q14 0 16 2.5 q2 2.5 2 9.5 l0 222 l-634 0 l0 -291 q0 -5 -4.5 -9.5 q-4.5 -4.5 -11.5 -7.5 q-7 -3 -11 -4.5 q-4 -1.5 -8 -2.5 q-9 -2 -17 -2 l-16 0 l0 394 l70 -34 l700 0 ZM320 436 l0 -62 l377 0 l0 62 l-377 0 ZM712 296 l-15 0 l0 34 l-377 0 l0 -18 q0 -4 -4 -8 q-4 -4 -14 -8 q-18 -7 -34 -7 l-15 0 l0 222 l67 -31 l444 0 l0 -160 l-4 -7 q-9 -9 -28 -14 q-11 -3 -20 -3 ZM531 623 q17 -18 17 -40 q0 -9 -4 -16 l414 -2 l0 -44 l-894 0 l-13 44 l434 0 q-11 40 -53 69 l-8 6 l21 15 q61 -8 86 -32 Z" /><glyph glyph-name="Identity.16940" unicode="&#x5de2;" d="M556 791 q-4 0 -8 0 q-19 -14 -102 -65 q109 -36 126 -86 q3 -8 3 -12.5 q0 -4.5 -1 -7.5 q-2 -16 -18 -23 q-8 -3 -17 -3 q-9 0 -22 7 q-17 28 -37 48 q-38 38 -89 65 l-9 4 q84 80 124 128 l75 -37 q-6 -9 -8 -12 q-7 -6 -17 -6 ZM321 791 q-4 0 -8 0 q-33 -25 -102 -67 q108 -39 123 -89 q2 -7 2 -13 q0 -21 -21 -29 q-7 -2 -14 -2 q-11 0 -24 7 q-40 69 -120 115 l-9 5 q84 81 121 128 l74 -37 l-3 -6 l-4 -7 q-6 -5 -15 -5 ZM260 407 l0 -85 l203 0 l0 85 l-203 0 ZM463 450 l0 81 l-203 0 l0 -81 l203 0 ZM738 450 l0 81 l-206 0 l0 -81 l206 0 ZM532 407 l0 -85 l206 0 l0 85 l-206 0 ZM532 211 l420 0 l0 -43 l-364 0 q63 -50 157 -90 q106 -43 220 -64 l0 -23 q-16 -2 -23 -6 q-20 -9 -27 -34 l-2 -7 l-7 2 q-112 31 -212 89 q-98 58 -159 133 l-3 0 l0 -225 q-4 -12 -28 -21 q-12 -4 -26 -4 l-15 0 l0 233 q-144 -138 -408 -211 l-6 -1 l-15 30 l8 3 q213 75 341 196 l-321 0 l-14 43 l415 0 l0 67 l-203 0 l0 -17 q-1 -5 -4 -8 q-5 -5 -14 -9 q-17 -7 -34 -7 l-16 0 l0 371 l68 -33 l545 0 l0 -302 q-1 -5 -5 -9 q-6 -5 -15 -10 q-18 -8 -34 -8 l-13 0 l0 32 l-206 0 l0 -67 ZM795 789 q-5 0 -10 1 q-18 -12 -107 -66 q114 -35 134 -86 q5 -10 5 -20 q0 -17 -19 -25 q-8 -2 -16.5 -2 q-8.5 0 -20.5 5 q-47 68 -142 116 l-9 4 q61 55 110 103 q13 14 24 27 l73 -39 q-4 -10 -7 -12 q-6 -6 -15 -6 Z" /><glyph glyph-name="Identity.17168" unicode="&#x5e73;" d="M963 332 l0 -43 l-428 0 l0 -345 q0 -7 -9 -12 q-6 -6 -15 -10 q-16 -5 -30 -5 l-15 0 l0 372 l-417 0 l-14 43 l431 0 l0 393 l-362 0 l-14 43 l827 0 l0 -43 l-382 0 l0 -393 l428 0 ZM355 468 q4 -17 4 -28 q0 -11 -1 -17 q-3 -24 -19 -36 q-8 -6 -17 -6 q-14 0 -32 17 q-8 82 -71 198 q-18 33 -41 69 l25 12 q33 -26 56 -50 q79 -79 96 -159 ZM638 373 l-26 17 l4 6 q75 118 131 276 l3 9 l66 -45 q-87 -171 -174 -259 l-4 -4 Z" /><glyph glyph-name="Identity.17181" unicode="&#x5e7b;" d="M538 70 q2 -15 2 -27 q0 -41 -21 -58 q-10 -8 -20 -8 q-15 0 -31 16 l-2 2 q0 6 0 16.5 q0 10.5 -3 32.5 q-3 22 -11 48 q-221 -57 -344 -84 q-9 -15 -21 -20 l-6 -3 l-45 90 l8 2 q20 4 28 11 q106 113 235 318 q-80 -18 -194 -37 q-8 -14 -21 -19 l-6 -3 l-44 89 l9 2 q16 3 21 8 q51 65 112 185 q60 122 87 207 l3 10 l62 -51 q-39 -100 -102 -201 q-57 -91 -113 -160 q103 3 212 11 q70 116 104 194 l4 10 l56 -62 q-62 -126 -167.5 -267.5 q-105.5 -141.5 -203.5 -242.5 q114 14 316 47 q-25 74 -65 133 l-5 8 l27 9 q26 -21 44 -40 q81 -80 95 -166 ZM919 738 l0 -44 q-12 -634 -81 -722 q-42 -53 -115 -53 l-7 0 l0 7 q0 29 -13 37 q-19 13 -94 26 l1 33 q120 -12 136 -12 q23 0 37 14 q10 10 20.5 46.5 q10.5 36.5 20.5 116.5 q20 166 28 507 l-425 0 l-13 44 l505 0 Z" /><glyph glyph-name="Identity.17627" unicode="&#x5f52;" d="M181 721 l0 -534 q0 -10 -16.5 -18.5 q-16.5 -8.5 -32.5 -8.5 l-18 0 l0 575 l67 -14 ZM305 606 q0 48 -1 101 l0 137 l67 -14 q-2 -353 -5 -405 q-10 -216 -73 -325 q-66 -119 -224 -185 l-5 -3 l-22 30 l8 3 q126 62 181 160 q53 95 65 245 q9 96 9 256 ZM891 747 l0 -797 q-1 -5 -5.5 -9.5 q-4.5 -4.5 -18.5 -11.5 q-14 -7 -30 -7 l-14 0 l0 110 l-437 0 l-13 44 l450 0 l0 299 l-359 0 l-12 43 l371 0 l0 285 l-387 0 l-13 44 l468 0 Z" /><glyph glyph-name="Identity.17685" unicode="&#x5f71;" d="M834 827 l55 -58 q-19 -20 -33 -34 q-120 -120 -275 -201 l-5 -3 l-21 26 q95 66 168 139 q58 59 111 131 ZM579 248 l-24 25 q101 73 178 150 q67 66 125 146 l53 -58 q-68 -80 -155 -148 q-86 -66 -177 -115 ZM459 702 l0 58 l-275 0 l0 -58 l275 0 ZM184 658 l0 -60 l275 0 l0 60 l-275 0 ZM459 554 l-275 0 l0 -29 q0 -7 -12 -14 q-17 -10 -38 -10 l-15 0 l0 333 l65 -30 l339 0 l1 -48 l0 -219 q-2 -9 -20 -17 q-16 -8 -30 -8 l-15 0 l0 42 ZM376 490 q0 -13 -8 -24 l264 0 l0 -44 l-585 0 l-12 44 l269 0 l0 1 q0 42 -36 76 l-7 7 l22 11 q26 -6 39 -12 q23 -11 36 -24 q18 -18 18 -35 ZM172 173 l56 -46 l-3 -5 q-28 -51 -74.5 -94.5 q-46.5 -43.5 -97.5 -70.5 l-5 -3 l-20 24 q19 16 32 29 q26 26 51 60 q38 52 58 98 l3 8 ZM454 330 l-265 0 l0 -78 l265 0 l0 78 ZM519 374 l0 -188 q-1 -4 -4.5 -7.5 q-3.5 -3.5 -17.5 -10 q-14 -6.5 -28 -6.5 l-15 0 l0 47 l-99 0 l0 -197 q0 -46 -22 -68 q-19 -18 -63 -24 l-7 -1 l-1 7 q-2 23 -12 36 q-18 11 -66 18 l0 30 q78 -7 94 -7 l10 2 q2 2 2 8 l0 196 l-101 0 l0 -27 q0 -4 -3 -7 l-7 -5 q-11 -7 -30 -10 q-5 -1 -10 -1 l-15 0 l0 245 l65 -30 l330 0 ZM387 172 q115 -33 142 -96 q7 -19 7 -33 q0 -17 -14 -29 q-10 -7 -21 -7 q-11 0 -26 10 l-1 2 q-7 32 -38 69 q-31 38 -64 61 l-6 5 l17 19 l4 -1 ZM882 291 l54 -57 q-35 -42 -69 -77 q-150 -149 -361 -236 l-6 -3 l-17 30 l7 3 q245 128 387 333 l5 7 Z" /><glyph glyph-name="Identity.19032" unicode="&#x624b;" d="M976 308 l0 -44 l-437 0 l0 -245 q0 -44 -24 -68 q-23 -25 -93 -32 l-7 -1 l-1 7 q-3 24 -22 36 q-31 14 -115 25 l0 29 q143 -12 169 -12 q15 0 19.5 4.5 q4.5 4.5 4.5 15.5 l0 241 l-433 0 l-13 44 l446 0 l0 182 l-365 0 l-12 44 l377 0 l0 174 q-194 -25 -376 -28 l-6 33 q261 19 512 75 q114 25 199 55 l21 -76 q-132 -28 -281 -50 l0 -183 l373 0 l0 -44 l-373 0 l0 -182 l437 0 Z" /><glyph glyph-name="Identity.19874" unicode="&#x6444;" d="M739 542 l-246 0 l0 -76 l246 16 l0 60 ZM739 689 l0 58 l-246 0 l0 -58 l246 0 ZM739 646 l-246 0 l0 -60 l246 0 l0 60 ZM428 747 l-101 0 l-10 43 l613 0 l0 -43 l-125 0 l0 -262 l12 1 l103 0 l0 -39 l-115 -7 l0 -63 q0 -4 -4 -7 l-5 -5 q-16 -12 -42 -12 l-15 0 l0 84 l-419 -25 l-12 38 l120 12 l0 285 ZM580 33 q0 -2 0 -4 l0 -1 q-1 -16 -8.5 -23.5 q-7.5 -7.5 -19.5 -7.5 q-12 0 -26 10 q-11 34 -45 87 q-84 -114 -215 -173 l-6 -3 l-17 26 l6 4 q125 72 195 193 q-55 66 -118 120 l-6 5 l22 18 q73 -41 130 -87 q23 56 37 111 l-177 0 l-13 44 l260 0 l1 -42 q-26 -89 -62 -157 q62 -68 62 -120 ZM750 152 q43 68 69 157 l-142 0 q25 -89 73 -157 ZM891 353 l0 -43 q-40 -126 -103 -206 q74 -79 183 -118 l6 -2 l-4 -23 l-5 -1 q-35 -4 -41 -31 l-2 -8 l-8 4 q-99 45 -168 135 q-90 -94 -230 -142 l-5 -1 l-16 26 q76 35 131 77 q50 39 88 87 q-53 88 -79 202 l-15 0 l-13 44 l281 0 ZM242 13 q0 -47 -20.5 -67.5 q-20.5 -20.5 -74.5 -26.5 l-7 -1 l-1 7 q-5 28 -18 36 q-19 14 -81 23 l0 30 q101 -8 116 -8 q15 0 17 2 q3 4 3 12 l0 304 q-47 -37 -72 -55 q-1 -21 -17 -31 l-6 -4 l-53 78 q52 25 148 82 l0 183 l-125 0 l-12 44 l137 0 l0 223 l66 -12 l0 -211 l136 0 l0 -44 l-136 0 l0 -144 q17 11 49 30 q32 19 54 32 l17 -22 q-34 -29 -35 -29 q-19 -15 -44.5 -36.5 q-25.5 -21.5 -40.5 -32.5 l0 -362 Z" /><glyph glyph-name="Identity.19876" unicode="&#x6446;" d="M521 565 l0 166 l-100 0 l0 -166 l100 0 ZM678 565 l0 166 l-94 0 l0 -166 l94 0 ZM837 565 l0 166 l-95 0 l0 -166 l95 0 ZM837 521 l-416 0 l0 -29 q0 -9 -18 -18 q-14 -7 -32 -7 l-15 0 l0 339 l66 -31 l480 0 l0 -264 l0 -1 l-3 -5 q-5 -5 -18 -10 q-24 -8 -29 -8 q-1 0 -1 0 l-14 0 l0 34 ZM59 -19 l0 30 q78 -6 88.5 -6 q10.5 0 13.5 1 q2 3 2 10 l0 298 q-36 -24 -62 -40 q-4 -21 -20 -28 l-6 -3 l-45 81 q42 15 133 58 l0 200 l-116 0 l-12 44 l128 0 l0 218 l66 -12 l0 -206 l131 0 l0 -44 l-131 0 l0 -167 q37 17 113 55 l14 -26 l-71 -49 l-56 -37 l0 -348 q-1 -49 -20 -69 q-18 -17 -65 -23 l-7 -1 q-2 21 -4 27 q-5 12 -10 17 q-14 12 -58 19 l-6 1 ZM969 261 l0 -44 l-679 0 l-12 44 l305 0 l0 100 l-224 0 l-12 44 l236 0 l0 124 l67 -12 l0 -112 l252 0 l0 -44 l-252 0 l0 -100 l319 0 ZM918 1 q10 -24 10 -43 q0 -19 -12 -30 q-9 -7 -19.5 -7 q-10.5 0 -27.5 12 q-10 34 -43 85 q-191 -35 -434 -66 q-8 -17 -21 -22 l-6 -3 l-47 91 q23 6 31 8 q68 38 156 132 q36 38 64 77 l53 -54 q-15 -15 -25 -25 q-78 -79 -163 -132 q127 7 368 30 q-38 53 -86 103 l24 15 q77 -45 119 -87 q42 -42 59 -84 Z" /><glyph glyph-name="Identity.20675" unicode="&#x65e9;" d="M259 554 l0 -137 l485 0 l0 137 l-485 0 ZM744 598 l0 129 l-485 0 l0 -129 l485 0 ZM968 232 l0 -44 l-435 0 l0 -245 q0 -4 -2.5 -6.5 q-2.5 -2.5 -6.5 -4.5 q-6 -6 -19 -10 q-12 -4 -26 -4 l-15 0 l0 270 l-420 0 l-12 44 l432 0 l0 142 l-205 0 l0 -32 q0 -5 -4.5 -9.5 q-4.5 -4.5 -14.5 -8.5 q-15 -8 -33 -8 l-16 0 l0 487 l68 -33 l554 0 l0 -422 q-1 -7 -11 -13 q-22 -13 -43 -13 l-15 0 l0 52 l-211 0 l0 -142 l435 0 Z" /><glyph glyph-name="Identity.21126" unicode="&#x6700;" d="M747 745 l-486 0 l0 -246 q0 -5 -4.5 -9.5 q-4.5 -4.5 -17.5 -10.5 q-13 -6 -30 -6 l-16 0 l0 348 l68 -32 l553 0 l0 -283 q-1 -4 -5 -8 q-4 -4 -19 -10.5 q-15 -6.5 -29 -6.5 l-14 0 l0 264 ZM719 680 l0 -44 l-408 0 l-12 44 l420 0 ZM718 571 l0 -44 l-408 0 l-12 44 l420 0 ZM228 338 l188 0 l0 76 l-188 0 l0 -76 ZM228 173 l0 -87 q87 10 188 24 l0 63 l-188 0 ZM228 217 l188 0 l0 78 l-188 0 l0 -78 ZM161 414 l-104 0 l-12 44 l909 0 l0 -44 l-471 0 l0 -471 q0 -4 -2 -6 q-3 -3 -7 -5 q-6 -6 -18 -10.5 q-12 -4.5 -25 -4.5 l-15 0 l0 156 q-127 -35 -295 -72 q-7 -16 -25 -23 l-6 -2 l-42 90 q39 3 113 11 l0 337 ZM699 129 q61 76 96 171 l-203 0 q36 -100 107 -171 ZM660 85 q-71 88 -104 215 l-62 0 l-13 44 l393 0 l0 -44 q-45 -121 -130 -210 q93 -70 226 -102 l6 -2 l-4 -21 q-18 -3 -27 -8 q-17 -11 -24 -35 l-2 -7 l-7 2 q-135 50 -215 128 q-84 -71 -201 -116 l-5 -2 l-17 28 l7 3 q105 50 179 127 Z" /><glyph glyph-name="Identity.21208" unicode="&#x672f;" d="M797 721 q12 -19 12 -33.5 q0 -14.5 -9 -23.5 q-10 -10 -22 -10 q-11 0 -24 7 q-17 31 -59 65 q-43 34 -84 55 l-8 3 l17 23 q137 -24 177 -86 ZM527 603 l436 0 l0 -44 l-407 0 q57 -201 203 -347 q95 -95 215 -151 l5 -2 l-6 -21 l-5 0 q-37 -2 -54 -37 l-3 -7 l-7 4 q-144 85 -244 230 q-85 124 -129 283 l-4 -563 q0 -12 -19 -22 q-24 -9 -30 -9 q-1 0 -1 0 l-18 0 l0 541 q-135 -304 -415 -478 l-5 -3 l-22 25 q70 51 125 107 q67 66 122 146 q101 144 153 304 l-363 0 l-13 44 l418 0 l0 241 l68 -12 l0 -229 Z" /><glyph glyph-name="Identity.23084" unicode="&#x6b4c;" d="M932 642 l0 -48 q-41 -99 -95 -179 l-25 11 q23 80 42 172 l-220 0 q-41 -93 -76 -144 l-4 -5 l-27 14 q66 164 106 384 l69 -30 q-17 -84 -51 -175 l281 0 ZM479 737 l0 -286 q0 -4 -5 -9 q-6 -6 -11 -8 q-11 -6 -20 -7 q-9 -1 -15 -1 l-15 0 l0 311 l-357 0 l-12 43 l533 0 l0 -43 l-98 0 ZM175 632 l0 -100 l112 0 l0 100 l-112 0 ZM301 457 l-14 0 l0 31 l-112 0 l0 -25 q0 -4 -4 -8 q-4 -5 -14 -9 q-16 -7 -32 -7 l-15 0 l0 266 l64 -29 l177 0 l0 -195 q-1 -4 -5 -8 q-5 -5 -14 -9 q-17 -7 -31 -7 ZM161 268 l0 -123 l117 0 l0 123 l-117 0 ZM343 312 l0 -214 q-1 -4 -5 -8 q-4 -4 -14 -9 q-17 -8 -31 -8 l-15 0 l0 29 l-117 0 l0 -27 q0 -4 -4 -8 q-5 -5 -17.5 -10.5 q-12.5 -5.5 -27.5 -5.5 l-15 0 l0 291 l64 -30 l182 0 ZM417 371 l-370 0 l-12 44 l567 0 l0 -44 l-119 0 l0 -357 q0 -45 -21 -66 q-21 -21 -72 -27 l-7 -1 q-2 18 -4 23.5 q-2 5.5 -4 8.5 q-3 5 -7 9 q-20 13 -78 20 l0 30 q94 -8 108 -8 q14 0 16.5 2.5 q2.5 2.5 2.5 9.5 l0 356 ZM727 304 q-18 -116 -63 -206 q-55 -112 -174 -183 l-5 -3 l-23 26 q34 24 57 47 q23 23 41 49 q39 54 60 109 q22 55 35 130 q13 75 17 134 q4 59 5 153 l69 -27 l-1 -35 q14 -201 62 -321 q50 -120 169 -192 l3 -2 l-2 -21 l-5 -1 q-38 -5 -47 -37 l-3 -9 l-8 5 q-89 63 -133 173 q-37 90 -54 211 Z" /><glyph glyph-name="Identity.26109" unicode="&#x71d5;" d="M229 98 q0 -51 -20 -88 q-29 -54 -71 -79 q-35 -14 -45 -14 q0 0 -1 0 q-25 0 -36 18 q-4 9 -4 17 q0 23 31 40 l0 0 q41 18 73.5 59.5 q32.5 41.5 36.5 95.5 l1 6 l30 -1 q5 -31 5 -54 ZM442 -2 q0 -53 -31 -64 q-5 -1 -11 -1 q-16 0 -31 16 l-2 3 q2 17 2 33 q0 70 -33 151 l-3 8 l25 7 q10 -9 16 -15 q68 -69 68 -138 ZM438 459 l0 -186 l135 0 l0 186 l-135 0 ZM587 186 l-14 0 l0 43 l-135 0 l0 -32 q0 -9 -18 -18 q-14 -7 -32 -7 l-15 0 l0 360 l65 -30 l200 0 l0 -291 q-1 -4 -5 -8 q-4 -4 -14 -9 q-19 -8 -32 -8 q0 0 0 0 ZM685 -19 q0 -27 -19 -40 q-8 -5 -18 -5 q-14 0 -31 13 q-5 41 -33 94 q-27 52 -58 91 l-6 6 l24 13 q54 -31 86 -63 q39 -40 51 -82 q4 -15 4 -27 ZM240 391 l-167 0 l-12 44 l179 0 l0 141 l66 -12 l0 -304 l56 12 l7 -28 q-108 -44 -244 -94 q-6 -17 -24 -23 l-5 -1 l-52 83 q82 13 196 37 l0 145 ZM390 604 l229 0 l0 73 l-229 0 l0 -73 ZM685 720 l255 0 l0 -43 l-255 0 l0 -125 q0 -9 -18 -18 q-14 -7 -31 -7 l-17 0 l0 33 l-229 0 l0 -15 q-1 -5 -5 -9.5 q-4 -4.5 -11 -8 q-7 -3.5 -12 -5.5 q-10 -3 -20 -3 l-18 0 l0 158 l-254 0 l-14 43 l268 0 l0 126 l66 -11 l0 -115 l229 0 l0 126 l66 -11 l0 -115 ZM824 162 l-59 0 q-43 0 -57 13 q-14 14 -14 46 l0 360 l66 -12 l0 -136 l180 0 l0 -43 l-180 0 l0 -157 q0 -6 2 -9 q4 -1 15 -1 l51 0 q35 0 60 2 l1 0 l1 0 q8 0 14 3 l13 0 q35 -10 35 -29 q0 -22 -30 -31 q-24 -6 -98 -6 ZM732 159 q159 -63 207 -152 q15 -27 15 -47 q0 -21 -14 -35 q-9 -9 -21 -9 q-12 0 -29 10 q-23 66 -111 154 q-32 32 -71 63 l20 17 l4 -1 Z" /><glyph glyph-name="Identity.28705" unicode="&#x7761;" d="M136 303 l0 -178 l136 0 l0 178 l-136 0 ZM272 560 l0 145 l-136 0 l0 -145 l136 0 ZM136 346 l136 0 l0 170 l-136 0 l0 -170 ZM337 749 l0 -701 q-1 -4 -5.5 -8.5 q-4.5 -4.5 -14.5 -10.5 q-16 -9 -31 -9 l-14 0 l0 61 l-136 0 l0 -80 q0 -10 -16 -18 q-13 -8 -31 -8 l-17 0 l0 806 l64 -32 l201 0 ZM505 532 l0 -128 l103 0 l0 -44 l-103 0 l0 -118 q0 -6 -5 -11 q-5 -5 -12 -9 q-14 -8 -28 -8 l-17 0 l0 146 l-93 0 l-10 44 l103 0 l0 139 l62 -11 ZM964 11 l0 -44 l-612 0 l-12 44 l271 0 l0 117 l-203 0 l-12 44 l215 0 l0 394 l-250 0 l-12 44 l262 0 l0 113 q-95 -12 -190 -16 l-9 33 q117 14 233.5 42 q116.5 28 183.5 56 l7 4 l23 -76 q-81 -17 -182 -33 l0 -123 l285 0 l0 -44 l-285 0 l0 -394 l237 0 l0 -44 l-237 0 l0 -117 l287 0 ZM789 216 l-17 0 l0 144 l-77 0 l-12 44 l89 0 l0 139 l63 -11 l0 -128 l121 0 l0 -44 l-121 0 l0 -117 q0 -10 -18 -19 q-14 -8 -28 -8 Z" /><glyph glyph-name="Identity.33490" unicode="&#x80d6;" d="M834 765 l59 -41 q-60 -130 -124 -203 l-4 -4 l-28 16 l4 6 q45 79 93 226 ZM577 585 q2 -10 2 -19 q0 -31 -20 -43 q-6 -4 -13 -4 q-14 0 -28 13 l-2 2 q-3 43 -28 96 q-25 53 -56 95 l-4 6 l23 13 q39 -27 64 -52 q52 -52 62 -107 ZM313 499 q-6 -2 -12.5 -2 q-6.5 0 -13.5 1 q-42 34 -124 63 l0 -80 q0 -91 -2 -145 q66 30 152 78 l0 85 ZM313 744 l-150 0 l0 -143 q1 0 1 0 q66 0 105 -15 q29 -11 44 -24 l0 182 ZM377 788 l0 -776 q0 -46 -19.5 -65.5 q-19.5 -19.5 -73.5 -25.5 l-7 -1 l-1 7 q-5 27 -17 33 q-22 15 -75 20 l-6 1 l0 31 q100 -9 118 -9 q11 0 14 3 q3 3 3 12 l0 352 q-61 -51 -110 -90 q-4 -20 -19 -28 l-6 -4 l-21 40 q-16 -236 -105 -369 l-4 -5 l-29 15 q55 117 69 272 q7 77 9 134.5 q2 57.5 2 145.5 l0 341 l71 -34 l207 0 ZM965 260 l0 -44 l-264 0 l0 -269 q0 -12 -18 -21 q-15 -9 -31 -9 l-18 0 l0 299 l-241 0 l-10 44 l251 0 l0 180 l-206 0 l-12 43 l218 0 l0 357 l67 -11 l0 -346 l224 0 l0 -43 l-224 0 l0 -180 l264 0 Z" /><glyph glyph-name="Identity.33672" unicode="&#x8131;" d="M627 671 q0 -28 -20 -39 q-7 -4 -15 -4 q-14 0 -30 13 q-6 38 -31 88 q-24 49 -53 87 l-4 6 l22 13 q49 -29 78 -59 q40 -39 50 -82 q3 -13 3 -23 ZM168 508 q0 -115 -4 -180 l134 0 l0 192 l-130 0 l0 -12 ZM298 563 l0 181 l-130 0 l0 -181 l130 0 ZM365 788 l0 -763 q0 -47 -22 -70 q-20 -19 -73 -26 l-7 -1 q-3 20 -7 29.5 q-4 9.5 -7 11.5 q-19 19 -78 27 l-6 1 l0 31 q98 -10 113 -10 q15 0 17 3 q3 3 3 12 l0 251 l-137 0 q-18 -230 -100 -364 l-3 -5 l-29 15 l3 6 q32 79 48 187 q17 110 19 183 q3 75 3 201 l0 315 l73 -34 l190 0 ZM835 582 l-327 0 l0 -203 l327 0 l0 203 ZM835 5 q36 0 54 2 q6 0 8 9 q7 22 27 162 l28 0 l2 -165 q20 -10 20 -29 q0 -24 -32 -34 q-27 -9 -106 -9 l-68 0 q-46 0 -61 15 q-15 15 -15 46 l0 333 l-62 0 q-13 -161 -68 -256 q-56 -96 -189 -161 l-6 -3 l-13 27 q56 35 93 72 q42 42 66 91 q42 88 51 230 l-56 0 l0 -33 q0 -4 -4 -7 q-8 -7 -14 -10 q-17 -7 -32 -7 l-15 0 l0 379 l66 -32 l184 0 q54 109 88 219 l65 -35 l-3 -6 q-41 -98 -104 -178 l163 0 l0 -312 q-1 -4 -5 -8 q-5 -5 -13 -9 q-8 -4 -14 -6 q-10 -3 -20 -3 l-15 0 l0 48 l-77 0 l0 -320 q0 -6 2 -8 q5 -2 18 -2 l57 0 Z" /><glyph glyph-name="Identity.34410" unicode="&#x827a;" d="M954 -4 q0 -28 -68 -40 q-56 -9 -159 -9 l-319 0 q-115 0 -170 20 q-59 22 -66 75 q0 5 0 9.5 q0 4.5 0 12.5 q5 36 49 80 q12 12 27 25 q47 39 90 72.5 q43 33.5 128 95.5 q74 55 130 98 l-445 0 l-13 44 l563 0 l0 -49 q-302 -209 -388 -286 q-66 -59 -66 -87 q0 -11 9 -20 q9 -9 30 -15 q39 -10 124 -10 l318 0 q79 0 103 4 q21 4 27 14 q18 33 37 150 l27 -1 l-4 -155 q22 -5 29 -12 q7 -7 7 -16 ZM964 695 l0 -44 l-278 0 l0 -111 q0 -11 -17 -20 q-13 -7 -34 -8 l0 0 l-16 0 l0 139 l-231 0 l0 -116 q0 -12 -20 -20 q-25 -6 -31 -6 q-1 0 -1 0 l-16 0 l0 142 l-264 0 l-10 44 l274 0 l0 143 l68 -12 l0 -131 l231 0 l0 143 l67 -12 l0 -131 l278 0 Z" /><glyph glyph-name="Identity.37503" unicode="&#x884c;&#xfa08;" d="M929 709 l-496 0 l-12 44 l508 0 l0 -44 ZM294 844 l52 -54 q-52 -73 -128 -139 q-76 -67 -157 -116 l-21 23 q74 60 143 138 q68 78 106 141 l5 7 ZM266 457 l0 -514 q-1 -4 -5 -8 q-4 -4 -15 -9 q-15 -8 -31 -8 l-17 0 l0 466 q-75 -75 -154 -130 l-21 22 q23 21 47 45 q52 52 109 127 q75 99 117 179 l4 9 l56 -54 q-21 -36 -38 -59 q-27 -37 -52 -66 ZM975 523 l0 -44 l-196 0 l0 -459 q0 -44 -25 -69 q-24 -24 -92 -30 l-7 -1 l-1 7 q-3 26 -23 37 q-25 13 -116 24 l0 30 q147 -11 167 -11 q21 0 26 5 q3 3 3 10 l0 457 l-332 0 l-12 44 l608 0 Z" /><glyph glyph-name="Identity.39392" unicode="&#x8bb8;" d="M291 699 q9 -21 9 -39 q0 -19 -13 -30 q-10 -8 -21.5 -8 q-11.5 0 -27.5 11 q-23 79 -130 190 l-6 7 l23 13 q80 -39 123 -82 q30 -30 43 -62 ZM174 93 l0 437 l-122 0 l-13 44 l202 0 l0 -464 q113 75 155 105 l16 -25 l-197 -177 q-7 -27 -29 -34 l-6 -1 l-41 82 q26 13 30.5 18.5 q4.5 5.5 4.5 14.5 ZM976 370 l0 -43 l-289 0 l0 -381 q0 -7 -9 -12 q-6 -6 -18 -11 q-13 -5 -27 -5 l-15 0 l0 409 l-299 0 l-12 43 l311 0 l0 257 l-131 0 q-69 -120 -159 -197 l-4 -4 l-26 18 l5 6 q59 70 111 173 q52 104 81 219 l2 8 l67 -36 q-28 -92 -53 -143 l436 0 l0 -44 l-260 0 l0 -257 l289 0 Z" /><glyph glyph-name="Identity.39472" unicode="&#x8c08;" d="M477 773 q5 -28 5.5 -41 q0.5 -13 0.5 -23 q0 -42 -18 -87 q-9 -23 -17 -36 q-10 -14 -17 -21 q-14 -14 -34 -20 q-7 -2 -13 -2 q-13 0 -23 11 q-6 10 -6 20 q0 20 22 36 q25 21 46 66 q21 46 23 91 l0 7 l31 -1 ZM911 425 q13 -21 13 -34.5 q0 -13.5 -8 -21.5 l-5 -4 q-9 -6 -18.5 -6 q-9.5 0 -21.5 4 q-34 43 -107 95.5 q-73 52.5 -144 91.5 q-69 -127 -298 -192 l-5 -1 l-19 30 q61 20 102.5 40 q41.5 20 71.5 43 q27 22 50 46 q21 21 34 51 q13 32 21 55.5 q8 23.5 11 61.5 l0 0 q4 38 5 58 q1 34 1 79 l0 17 l71 -11 q-2 -86 -4 -112 q-1 -27 -9 -68 q-6 -36 -18 -65 q26 -8 40 -13 q92 96 158 196 l6 9 l46 -68 q-84 -86 -172 -150 q154 -59 199 -131 ZM492 306 q0 -59 -32 -112 q-14 -24 -33 -39 q-19 -16 -40 -19 q-4 -1 -8 -1 q-17 0 -27 14 q-5 9 -5 18 q0 20 25 39 l1 0 q30 17 55 60.5 q25 43.5 27 92.5 l0 7 l31 -1 q6 -34 6 -59 ZM275 710 q7 -19 7 -34 q0 -20 -16 -31 q-8 -6 -19 -6 q-11 0 -27 12 q-12 38 -46 85 l0 0 q-32 49 -67 84 l-6 6 l24 15 q72 -35 110 -73 q28 -28 40 -58 ZM175 88 l0 442 l-127 0 l-13 44 l206 0 l0 -454 q45 38 88 77 l21 -22 q-47 -65 -134 -163 q-6 -27 -28 -38 l-6 -3 l-42 83 q26 13 30.5 18.5 q4.5 5.5 4.5 15.5 ZM581 443 l0 18 l70 -12 l-1 -58 q17 -115 56 -194 q86 85 124 143 l6 9 l48 -70 l-4 -4 q-66 -60 -154 -111 q76 -122 244 -190 l4 -1 l-2 -24 l-6 0 q-38 -3 -45 -31 l-2 -8 q-95 44 -153 102 q-26 26 -46 55 q-54 80 -80 184 q-7 -42 -18 -76 q-17 -50 -54 -101 q-74 -100 -272 -163 l-5 -1 l-20 27 q55 21 98 44 q39 21 69 42 q29 21 52 47 q20 25 36 50 q20 30 36 88 q3 12 7.5 33 q4.5 21 6.5 59 l0 1 q4 54 4.5 87 q0.5 33 0.5 55 Z" /><glyph glyph-name="Identity.39964" unicode="&#x8d4f;" d="M365 695 q0 -21 -15 -34 q-10 -9 -22 -9 q-13 0 -30 13 l0 3 q-4 34 -30 72 q-26 40 -59 68 l-8 6 l23 14 q71 -24 106 -59 q21 -21 30 -46 q5 -15 5 -28 ZM460 271 l66 -34 q-6 -59 -9.5 -74 q-3.5 -15 -6.5 -23 q-17 -56 -47 -85 q-20 -18 -53 -40 q-33 -22 -79 -38 q-95 -33 -264 -60 l-12 35 q95 19 159 37 q64 18 107 40 q55 29 79 53 q19 19 31 44 q14 31 19 60 q6 30 10 85 ZM316 512 l0 -78 l362 0 l0 78 l-362 0 ZM693 357 l-15 0 l0 33 l-362 0 l0 -23 q0 -4 -4 -8 q-12 -12 -37 -15 q-5 -1 -10 -1 l-15 0 l0 244 l67 -31 l427 0 l1 -45 l0 -130 q-1 -7 -11 -12 q-12 -7 -23 -9.5 q-11 -2.5 -18 -2.5 ZM260 288 l0 -211 q0 -7 -9 -13 q-19 -11 -42 -11 l-15 0 l0 310 l72 -31 l530 0 l0 -238 q0 -4 -4 -8 q-8 -6 -12 -8 q-13 -7 -22 -8 q-9 -1 -15 -1 l-15 0 l0 219 l-468 0 ZM911 -54 q0 -11 -10.5 -20.5 q-10.5 -9.5 -24.5 -9.5 q-14 0 -32 10 q-113 84 -329 142 l-7 2 l10 32 l6 -1 q291 -44 367 -119 q20 -20 20 -36 ZM926 660 l0 -48 q-45 -62 -109 -110 l-3 -2 l-25 13 q28 48 49 103 l-662 0 q-1 -81 -55 -118 q-19 -14 -41 -14 q-23 0 -33 19 q-4 8 -4 17 q0 23 30 39 q27 16 44 54 q14 31 14 65 q0 9 -2 26 l31 1 q9 -28 12 -45 l294 0 l0 184 l68 -14 l0 -170 l90 0 q53 73 104 173 l58 -49 q-50 -72 -108 -124 l248 0 Z" /><glyph glyph-name="Identity.40579" unicode="&#x8eab;" d="M308 388 l0 -133 l375 53 l6 80 l-381 0 ZM689 577 l0 99 l-381 0 l0 -99 l381 0 ZM689 533 l-381 0 l0 -101 l381 0 l0 101 ZM757 12 q0 -43 -22 -65 q-21 -23 -87 -29 l-6 -1 l-2 6 q-7 27 -21 36 q-29 14 -101 23 l0 30 q127 -11 151 -11 q12 0 17 5 q3 3 3 13 l0 208 q-260 -207 -612 -302 l-6 -1 l-12 30 l7 3 q321 104 565 303 q-244 -50 -500 -94 q-8 -18 -26 -23 l-6 -1 l-35 84 q56 5 176 19 l0 508 l68 -33 l115 0 q20 59 37 127 l69 -25 q-6 -24 -14 -41.5 q-8 -17.5 -19 -34 q-11 -16.5 -18 -26.5 l279 0 l0 -342 q62 65 107 136 l6 10 l38 -67 q-60 -89 -151 -172 l0 -273 Z" /><glyph glyph-name="Identity.44174" unicode="&#x96c5;" d="M809 700 q0 -24 -18 -37 q-9 -6 -19 -6 q-14 0 -29 13 l-2 2 l0 3 q-1 32 -22 72 q-22 41 -48 68 l-6 6 l21 15 q55 -25 82.5 -52.5 q27.5 -27.5 36.5 -58.5 q4 -13 4 -25 ZM279 450 l0 280 l-92 0 q-15 -113 -50 -280 l142 0 ZM479 450 l0 -44 l-135 0 l0 -399 q0 -42 -20.5 -62.5 q-20.5 -20.5 -75.5 -26.5 l-7 -1 l-1 7 q-2 21 -16 29 q-19 12 -85 20 l0 30 q104 -9 117 -9 q17 0 20 3 q3 3 3 13 l0 277 q-79 -179 -213 -309 l-5 -4 l-26 21 l5 5 q135 163 207 406 l-175 0 l0 45 q32 138 50 279 l-61 0 l-12 44 l422 0 l0 -44 l-127 0 l0 -280 l135 0 ZM694 203 l-135 0 l0 -169 l135 0 l0 169 ZM694 447 l0 161 l-135 0 l0 -161 l135 0 ZM559 247 l135 0 l0 156 l-135 0 l0 -156 ZM979 34 l0 -44 l-420 0 l0 -48 q0 -7 -9 -13 q-6 -4 -17.5 -8.5 q-11.5 -4.5 -23.5 -4.5 l-15 0 l0 615 q-30 -42 -61 -74 l-22 21 q49 74 84 171 q36 98 56 195 l68 -39 q-27 -94 -54 -150 l397 -4 l0 -43 l-203 0 l0 -161 l188 0 l0 -44 l-188 0 l0 -156 l188 0 l0 -44 l-188 0 l0 -169 l220 0 Z" /></font>
</defs>
</svg>
