<?xml version="1.0" standalone="no"?><!DOCTYPE svg PUBLIC "-//W3C//DTD SVG 1.1//EN" "http://www.w3.org/Graphics/SVG/1.1/DTD/svg11.dtd" ><svg xmlns="http://www.w3.org/2000/svg"><metadata></metadata><defs><font id="ziticqnananti:Version 1.00" horiz-adv-x="1024"><font-face font-family="ziticqnananti" font-weight="400" font-stretch="normal" units-per-em="1000" panose-1="2 0 5 0 0 0 0 0 0 0" ascent="1000" descent="-300" x-height="0" bbox="45 -603 948 936" underline-thickness="50" underline-position="-80" unicode-range="U+0027-91cc" /><missing-glyph horiz-adv-x="1024" d="M121 -163 l0 995 l778 0 l0 -995 l-778 0 ZM169 -128 l683 0 l0 925 l-683 0 l0 -925 ZM334 634 q29 19 55 29 q50 21 105 21 q87 0 140 -33 q53 -33 53 -88 q0 -34 -21.5 -68.5 q-21.5 -34.5 -82.5 -89.5 q-59 -56 -93 -92 q-34 -36 -34 -69 q0 -26 22 -92 l-30 0 q-33 67 -33 103 q0 52 77 150.5 q77 98.5 77 151.5 q0 39 -31 62 q-31 23 -86 23 q-36 0 -65 -12 q-25 -10 -53 -28 l0 32 ZM394 69 l54 40 q11 7 19 7 q9 0 21 -8 l53 -41 q8 -8 8 -14 q0 -8 -9 -15 l-53 -43 q-13 -10 -20 -10 q-10 0 -19 7 l-57 49 q-7 6 -7 12 q0 7 10 16 Z" /><glyph glyph-name="uni4E2D" unicode="&#x4e2d;" d="M463 632 l0 0 q-174 0 -304 0 q0 -258 0 -497 q0 0 0 0 q0 12 8.5 20.5 q8.5 8.5 20.5 8.5 q84 0 168 0 q52 0 107 0 q0 142 0 325 q0 72 0 143 ZM846 632 l0 0 q-144 0 -303 0 q0 -214 0 -468 q151 0 303 0 q0 206 0 468 ZM120 67 l0 0 q-17 0 -28.5 12 q-11.5 12 -11.5 28 q0 248 0 576 q0 16 11.5 28 q11.5 12 28.5 12 q16 0 27.5 -12 q11.5 -12 11.5 -28 q0 -11 0 -23 q0 0 0 0 q0 12 8.5 20.5 q8.5 8.5 20.5 8.5 q108 0 275 0 q0 102 0 205 q0 16 12 27.5 q12 11.5 28 11.5 q16 0 28 -11.5 q12 -11.5 12 -27.5 q0 -103 0 -205 q151 0 303 0 q0 0 0 0 q0 16 11.5 27.5 q11.5 11.5 27.5 11.5 q17 0 28.5 -11.5 q11.5 -11.5 11.5 -27.5 q0 -254 0 -582 q0 -16 -11.5 -28 q-11.5 -12 -28.5 -12 q-16 0 -27.5 12 q-11.5 12 -11.5 28 q-144 0 -303 0 q0 -173 0 -387 q0 -16 -12 -28 q-12 -12 -28 -12 q-16 0 -28 12 q-12 12 -12 28 q0 214 0 387 q-173 0 -304 0 q0 -16 -11.5 -28 q-11.5 -12 -27.5 -12 Z" /><glyph glyph-name="uni4E4B" unicode="&#x4e4b;" d="M539 703 l0 0 q-15 -8 -30.5 -3.5 q-15.5 4.5 -23.5 18.5 q-19 36 -38 72 q-25 50 -52 97 q-9 18 -1 31.5 q8 13.5 23.5 15 q15.5 1.5 28.5 -14.5 q10 -14 20 -28 q48 -65 88 -134 q8 -15 3.5 -30.5 q-4.5 -15.5 -18.5 -23.5 ZM73 -264 l0 0 q221 167 387.5 386 q166.5 219 283.5 469 q-214 0 -397 0 q-102 0 -214 0 q-12 0 -20.5 8.5 q-8.5 8.5 -8.5 19.5 q0 12 8.5 20.5 q8.5 8.5 20.5 8.5 q227 0 416 0 q105 0 221 0 q2 4 4 7 q2 5 4 10 q7 15 22 20.5 q15 5.5 30 -0.5 q16 -7 21.5 -22 q5.5 -15 -0.5 -30 q-180 -408 -491 -725 q9 -1 17 -12 q18 -50 54 -85 q36 -35 91 -35 q88 0 192 0 q104 0 191 0 q17 0 28.5 -11.5 q11.5 -11.5 11.5 -28.5 q0 -16 -11.5 -27.5 q-11.5 -11.5 -28.5 -11.5 q-56 0 -121 0 q-139 -1 -262 0 q-71 3 -119.5 49.5 q-48.5 46.5 -67.5 112.5 q-3 12 -1 22 q-106 -104 -225 -193 q-18 -12 -32 -4.5 q-14 7.5 -17 23.5 q-3 16 13 29 Z" /><glyph glyph-name="uni4F20" unicode="&#x4f20;" d="M353 529 l0 0 l113 0 q32 102 57 206 l-145 0 q-11 0 -19.5 8.5 q-8.5 8.5 -8.5 20.5 q0 11 8.5 19.5 q8.5 8.5 19.5 8.5 l157 0 q3 12 5 23 q9 37 16 75 q4 16 17 25 q13 9 30 6 q16 -4 25 -17 q9 -13 6 -29 q-5 -29 -12 -56 q-3 -14 -6 -27 l271 0 q12 0 20 -8.5 q8 -8.5 8 -19.5 q0 -12 -8 -20.5 q-8 -8.5 -20 -8.5 l-283 0 q-24 -104 -54 -206 l363 0 q11 0 19.5 -8.5 q8.5 -8.5 8.5 -19.5 q0 -12 -8.5 -20.5 q-8.5 -8.5 -19.5 -8.5 l-381 0 q-25 -79 -53 -157 l352 0 q1 3 3 7 q1 3 3 7 q6 17 21.5 24.5 q15.5 7.5 32.5 1.5 q16 -7 23.5 -22.5 q7.5 -15.5 1.5 -32.5 q-102 -269 -309 -468 q87 -37 173 -76 q1 -1 1 -1 q1 -1 2 -1 q4 -3 7 -6 q2 -2 4 -5 q1 -1 2 -2 q1 -1 2 -2 q0 -1 0 -2 q0 -1 1 -2 q1 -3 2 -6 q1 -4 1 -9 q0 -2 -1 -5 q0 0 0 0 q0 -5 -2 -10 q0 0 -1 -1 q0 -1 0 -1 q0 -1 -1 -2 q0 0 -1 -1 q-2 -4 -6 -7 q-2 -3 -5 -4 q-1 -1 -1 -2 q-1 -1 -3 -2 q-1 0 -2 0 q0 -1 -1 -1 q-3 -1 -6 -2 q-5 -1 -9 -1 q-3 0 -5 1 q-1 0 -1 0 q-5 0 -9 2 q-1 0 -1 0 q-1 0 -2 1 q-104 48 -206 101 q-77 40 -155 77 q-18 10 -18.5 26 q-0.5 16 11.5 26.5 q12 10.5 31 2.5 q64 -28 128 -55 q0 1 1 1 q0 1 1 2 q175 167 271 392 l-351 0 q-3 -7 -5 -13 q-2 -7 -5 -15 q-7 -15 -21.5 -21.5 q-14.5 -6.5 -29.5 -0.5 q-18 8 -23 26 q-8 10 -8 22 q0 22 19 34 q35 90 64 182 l-96 0 q-12 0 -20.5 8.5 q-8.5 8.5 -8.5 20.5 q0 11 8.5 19.5 q8.5 8.5 20.5 8.5 ZM298 921 l0 0 q16 -5 24 -18.5 q8 -13.5 5 -29.5 q-26 -106 -60 -209 l0 -944 q0 -16 -12 -27.5 q-12 -11.5 -28 -11.5 q-16 0 -28 11.5 q-12 11.5 -12 27.5 l0 728 q-33 -81 -69 -161 q-10 -19 -26 -19.5 q-16 -0.5 -26 12 q-10 12.5 -3 32.5 q62 139 107 285 q45 146 80 294 q4 17 17.5 25 q13.5 8 30.5 5 Z" /><glyph glyph-name="uni4F53" unicode="&#x4f53;" d="M639 -319 l0 0 q-17 0 -28.5 11.5 q-11.5 11.5 -11.5 27.5 l0 358 l-108 0 q-12 0 -20.5 8.5 q-8.5 8.5 -8.5 19.5 q0 12 8.5 20.5 q8.5 8.5 20.5 8.5 l108 0 l0 563 l-60 0 q0 -1 -1 -1 q0 -1 0 -2 q0 0 0 0 q0 -1 0 -1 q-1 -10 -2 -20 q-23 -192 -58.5 -433.5 q-35.5 -241.5 -84.5 -421.5 q-6 -20 -22.5 -23 q-16.5 -3 -29 7.5 q-12.5 10.5 -8.5 31.5 q34 132 58.5 309 q24.5 177 42.5 347 q13 115 25 207 l-81 0 q-12 0 -20.5 8.5 q-8.5 8.5 -8.5 20.5 q0 11 8.5 19.5 q8.5 8.5 20.5 8.5 l221 0 l0 139 q0 16 11.5 27.5 q11.5 11.5 28.5 11.5 q16 0 28 -11.5 q12 -11.5 12 -27.5 l0 -139 l221 0 q12 0 20 -8.5 q8 -8.5 8 -19.5 q0 -12 -8 -20.5 q-8 -8.5 -20 -8.5 l-221 0 l0 -563 l108 0 q12 0 20.5 -8.5 q8.5 -8.5 8.5 -20.5 q0 -11 -8.5 -19.5 q-8.5 -8.5 -20.5 -8.5 l-108 0 l0 -358 q0 -16 -12 -27.5 q-12 -11.5 -28 -11.5 ZM915 -204 l0 0 q-16 -4 -29.5 4 q-13.5 8 -18.5 25 q-28 111 -48.5 264.5 q-20.5 153.5 -36.5 302.5 q-11 107 -22 189 q-1 21 13 29.5 q14 8.5 29.5 3.5 q15.5 -5 19.5 -26 q6 -45 14 -100 q20 -157 48 -336 q28 -179 60 -308 q3 -16 -5 -29.5 q-8 -13.5 -24 -18.5 ZM227 -319 l0 0 q-17 0 -28.5 11.5 q-11.5 11.5 -11.5 27.5 l0 740 q-33 -81 -69 -162 q-10 -18 -26 -18.5 q-16 -0.5 -26 12 q-10 12.5 -3 32.5 q62 139 107 285 q45 146 80 294 q4 16 17.5 24.5 q13.5 8.5 29.5 4.5 q17 -4 25 -17.5 q8 -13.5 5 -29.5 q-26 -106 -60 -210 l0 -955 q0 -16 -12 -27.5 q-12 -11.5 -28 -11.5 Z" /><glyph glyph-name="uni5357" unicode="&#x5357;" d="M542 743 l0 0 q0 -69 0 -140 q148 0 295 0 q1 17 12 28.5 q11 11.5 28 11.5 q16 0 27.5 -12 q11.5 -12 11.5 -28 l0 -882 q0 -17 -11.5 -28.5 q-11.5 -11.5 -27.5 -11.5 q-16 0 -28 11 l-131 0 q-11 0 -19.5 8.5 q-8.5 8.5 -8.5 20.5 q0 11 8.5 19.5 q8.5 8.5 19.5 8.5 l106 0 q5 0 9 4 q4 4 4 10 l0 783 q-222 0 -446 0 q-112 0 -223 0 q0 -401 0 -825 q0 -17 -11.5 -28.5 q-11.5 -11.5 -28.5 -11.5 q-16 0 -27.5 11.5 q-11.5 11.5 -11.5 28.5 q0 421 0 877 q0 16 11.5 27.5 q11.5 11.5 27.5 11.5 q17 0 28.5 -11.5 q11.5 -11.5 11.5 -28.5 q0 -11 0 -22 q0 11 8.5 19.5 q8.5 8.5 19.5 8.5 q133 0 267 0 q0 72 0 140 q-187 0 -375 0 q-11 0 -19.5 8.5 q-8.5 8.5 -8.5 19.5 q0 12 8.5 20.5 q8.5 8.5 19.5 8.5 q188 0 375 0 q0 47 0 95 q0 16 11.5 27.5 q11.5 11.5 27.5 11.5 q17 0 28.5 -11.5 q11.5 -11.5 11.5 -28.5 q0 -48 0 -94 q187 0 375 0 q11 0 19.5 -8.5 q8.5 -8.5 8.5 -20.5 q0 -11 -8.5 -19.5 q-8.5 -8.5 -19.5 -8.5 q-188 0 -375 0 ZM542 -279 l0 0 q0 -17 -11.5 -28.5 q-11.5 -11.5 -28.5 -11.5 q-16 0 -27.5 11.5 q-11.5 11.5 -11.5 28.5 q0 121 0 255 q-119 0 -234 0 q-12 0 -20.5 8.5 q-8.5 8.5 -8.5 20.5 q0 12 8.5 20 q8.5 8 20.5 8 q95 0 194 0 q20 0 40 0 q0 89 0 173 q-67 0 -135 0 q-35 0 -71 0 q-12 0 -20 8.5 q-8 8.5 -8 20.5 q0 11 8 19.5 q8 8.5 20 8.5 q256 0 491 0 q12 0 20.5 -8.5 q8.5 -8.5 8.5 -19.5 q0 -12 -8.5 -20.5 q-8.5 -8.5 -20.5 -8.5 q-107 0 -206 0 q0 -83 0 -173 q119 0 234 0 q12 0 20.5 -8 q8.5 -8 8.5 -20 q0 -12 -8.5 -20.5 q-8.5 -8.5 -20.5 -8.5 q-101 0 -207 0 q-14 0 -27 0 q0 -131 0 -255 ZM382 301 l0 0 q-15 -6 -30 0 q-15 6 -22 21 q-12 30 -24 63 q-14 37 -29 73 q-7 17 2.5 29 q9.5 12 25 13 q15.5 1 26.5 -16 q7 -12 14 -24 q31 -52 58 -107 q6 -16 0.5 -30.5 q-5.5 -14.5 -21.5 -21.5 ZM655 313 l0 0 q-10 -16 -25.5 -15.5 q-15.5 0.5 -25 12.5 q-9.5 12 -3.5 30 q16 35 29 73 q12 32 25 63 q7 15 21.5 21 q14.5 6 30.5 0 q15 -7 21 -21.5 q6 -14.5 0 -30.5 q-27 -55 -59 -108 q-7 -12 -14 -24 Z" /><glyph glyph-name="uni54EA" unicode="&#x54ea;" d="M220 759 l0 0 q-36 0 -81 0 q0 -257 0 -537 q0 -132 0 -258 q8 21 27 21 q32 0 54 0 q0 374 0 774 ZM99 -122 l0 0 q-16 0 -27.5 13 q-11.5 13 -11.5 31 q0 390 0 826 q0 34 0 67 q0 19 11.5 31.5 q11.5 12.5 27.5 12.5 q17 0 28.5 -13 q11.5 -13 11.5 -31 q0 -12 0 -25 q0 13 8.5 22.5 q8.5 9.5 19.5 9.5 q32 0 53 0 l0 0 q0 18 11.5 30.5 q11.5 12.5 28.5 12.5 q16 0 28 -13 q12 -13 12 -31 q0 -192 0 -401 q0 -103 0 -206 q0 -150 0 -292 q0 -18 -12 -31 q-12 -13 -28 -13 q-17 0 -28.5 13 q-11.5 13 -11.5 31 q-27 0 -52 0 q-14 0 -29 0 q0 -18 -11.5 -31 q-11.5 -13 -28.5 -13 ZM471 446 l0 0 q0 -4 0 -8 q2 -129 -6 -247 q46 0 92 0 q0 127 0 274 q-43 0 -86 0 q0 -9 0 -19 ZM471 816 l0 0 q0 -122 0 -294 q43 0 86 0 q0 147 0 294 q-43 0 -86 0 ZM308 -308 l0 0 q-14 -16 -30 -12 q-16 4 -23.5 18.5 q-7.5 14.5 4.5 32.5 q59 81 88 185.5 q29 104.5 37 217.5 q-23 0 -47 0 q-12 0 -20 8 q-8 8 -8 20 q0 12 8 20.5 q8 8.5 20 8.5 q25 0 51 0 q6 102 4 210 q0 19 0 37 q0 13 0 27 q-28 0 -55 0 q-12 0 -20 8.5 q-8 8.5 -8 19.5 q0 12 8 20.5 q8 8.5 20 8.5 q27 0 55 0 q0 75 0 159 q0 77 0 135 q-33 0 -66 0 q-12 0 -20.5 18.5 q-8.5 18.5 -8.5 29.5 q0 12 8.5 10.5 q8.5 -1.5 20.5 -1.5 q74 0 154 0 q38 0 77 0 q0 0 0 0 q0 16 11.5 28 q11.5 12 27.5 12 q17 0 28.5 -12 q11.5 -12 11.5 -28 q0 -587 0 -1154 q0 -16 -11.5 -27.5 q-11.5 -11.5 -28.5 -11.5 q-16 0 -28 11 q-56 0 -113 0 q-12 0 -20 8.5 q-8 8.5 -8 19.5 q0 12 8 20.5 q8 8.5 20 8.5 q44 0 88 0 q5 0 9.5 4 q4.5 4 4.5 9 q0 187 0 373 q-48 0 -96 0 q-11 -122 -46 -235 q-35 -113 -107 -207 ZM909 900 l0 0 q28 -10 28 -37 l0 -211 q0 -88 -26.5 -159 q-26.5 -71 -79.5 -138 q-15 -16 -31 -12 q-16 4 -23 19 q-7 15 5 32 q47 59 61.5 119.5 q14.5 60.5 14.5 138.5 l0 154 q-53 0 -104 0 q0 -537 0 -1087 q0 -16 -11.5 -27.5 q-11.5 -11.5 -28.5 -11.5 q-16 0 -28 11.5 q-12 11.5 -12 27.5 q0 549 0 1139 q0 16 12 27.5 q12 11.5 28 11.5 q17 0 28.5 -11.5 q11.5 -11.5 11.5 -28.5 q0 -11 0 -22 q0 11 8 19.5 q8 8.5 20 8.5 q44 0 76 0 q2 29 29 37 q0 0 1 1 q4 2 10 2 q5 0 10 -2 q0 -1 1 -1 ZM905 364 l0 0 q16 0 28 -12 q12 -12 12 -28 l0 -224 q0 -91 -25.5 -159.5 q-25.5 -68.5 -82.5 -138.5 q-14 -15 -29.5 -10.5 q-15.5 4.5 -23 19 q-7.5 14.5 4.5 30.5 q48 60 62 120.5 q14 60.5 14 138.5 l0 224 q0 16 12 28 q12 12 28 12 Z" /><glyph glyph-name="uni5728" unicode="&#x5728;" d="M907 711 l0 0 l-483 0 q-43 -112 -102 -216 q4 -8 4 -18 l0 -758 q0 -16 -11.5 -27.5 q-11.5 -11.5 -27.5 -11.5 q-17 0 -28.5 11.5 q-11.5 11.5 -11.5 27.5 l0 656 q-60 -87 -132 -166 q-16 -15 -31.5 -10 q-15.5 5 -21.5 20.5 q-6 15.5 7 32.5 q92 99 159 215.5 q67 116.5 114 243.5 l-201 0 q-12 0 -20 8 q-8 8 -8 20 q0 12 8 20 q8 8 20 8 l221 0 q24 68 42 136 q5 16 19 24 q14 8 30 4 q16 -5 24 -18.5 q8 -13.5 4 -30.5 q-16 -58 -36 -115 l462 0 q12 0 20 -8 q8 -8 8 -20 q0 -12 -8 -20 q-8 -8 -20 -8 ZM383 -279 l0 0 q-11 0 -19.5 8 q-8.5 8 -8.5 20 q0 12 8.5 20 q8.5 8 19.5 8 l228 0 q0 1 0 2 q-1 0 -1 1 l0 497 l-198 0 q-12 0 -20.5 8.5 q-8.5 8.5 -8.5 20.5 q0 11 8.5 19.5 q8.5 8.5 20.5 8.5 l198 0 l0 235 q0 17 12 29.5 q12 12.5 28 12.5 q16 0 28 -12.5 q12 -12.5 12 -30.5 l0 -234 l198 0 q12 0 20.5 -8.5 q8.5 -8.5 8.5 -19.5 q0 -12 -8.5 -20.5 q-8.5 -8.5 -20.5 -8.5 l-198 0 l0 -497 q0 -1 -1 -1 q0 -1 0 -2 l228 0 q11 0 19.5 -8 q8.5 -8 8.5 -20 q0 -12 -8.5 -20 q-8.5 -8 -19.5 -8 l-534 0 Z" /><glyph glyph-name="uni5947" unicode="&#x5947;" d="M88 384 l0 0 q-11 0 -19.5 8 q-8.5 8 -8.5 20 q0 12 8.5 20 q8.5 8 19.5 8 q415 0 829 0 q12 0 20 -8 q8 -8 8 -20 q0 -12 -8 -20 q-8 -8 -20 -8 q-69 0 -99 0 l0 -664 q0 -17 -11.5 -28.5 q-11.5 -11.5 -27.5 -11.5 q-17 0 -28 11 l-138 0 q-12 0 -20 8.5 q-8 8.5 -8 20.5 q0 11 8 19.5 q8 8.5 20 8.5 l112 0 q6 0 10 4 q4 4 4 9 l0 623 q-335 0 -651 0 ZM532 212 l0 0 q-170 0 -318 0 q0 -74 0 -162.5 q0 -88.5 0 -162.5 q0 12 8 20.5 q8 8.5 20 8.5 q124 0 290 0 q0 135 0 296 ZM174 303 l0 0 q17 0 28.5 -12 q11.5 -12 11.5 -28 q0 -10 0 -22 q0 11 8 19.5 q8 8.5 20 8.5 q124 0 290 0 l0 0 q0 16 11.5 27.5 q11.5 11.5 28.5 11.5 q16 0 27.5 -11.5 q11.5 -11.5 11.5 -27.5 q0 -83 0 -200 q0 -117 0 -210 q0 -16 -11.5 -28 q-11.5 -12 -27.5 -12 q-17 0 -28.5 11.5 q-11.5 11.5 -11.5 28.5 q-124 0 -224 0 q-48 0 -94 0 q-1 -17 -12 -28.5 q-11 -11.5 -28 -11.5 q-16 0 -28 12 q-12 12 -12 28 q0 80 0 197 q0 117 0 207 q0 17 12 28.5 q12 11.5 28 11.5 ZM100 541 l0 0 q94 27 189.5 82.5 q95.5 55.5 141.5 145.5 q-150 0 -313 0 q-12 0 -20.5 8.5 q-8.5 8.5 -8.5 20.5 q0 11 8.5 19.5 q8.5 8.5 20.5 8.5 q177 0 331 0 q4 19 4 40 l0 27 q0 7 2 13 q11 27 37 27 q17 0 28.5 -11.5 q11.5 -11.5 11.5 -28.5 l0 -28 q0 -20 -3 -39 q79 0 159 0 q84 0 177 0 q12 0 20.5 -8.5 q8.5 -8.5 8.5 -19.5 q0 -12 -8.5 -20.5 q-8.5 -8.5 -20.5 -8.5 q-187 0 -348 0 q-44 -119 -157.5 -185.5 q-113.5 -66.5 -241.5 -101.5 q-20 -5 -31 7.5 q-11 12.5 -8.5 28.5 q2.5 16 21.5 23 ZM860 484 l0 0 q-172 87 -307 227 q-14 15 -8.5 31 q5.5 16 21 22 q15.5 6 31.5 -9 q131 -124 297 -199 q15 -8 20.5 -23 q5.5 -15 -1.5 -30 q-8 -15 -23 -20.5 q-15 -5.5 -30 1.5 Z" /><glyph glyph-name="uni5B57" unicode="&#x5b57;" d="M162 736 l0 0 q0 12 8.5 20.5 q8.5 8.5 20.5 8.5 q159 0 304 0 q-14 28 -27 57 q-15 34 -32 66 q-8 18 1 30.5 q9 12.5 24.5 14 q15.5 1.5 26.5 -13.5 q12 -18 25 -36 q30 -42 55 -88 q8 -15 3 -30 q133 0 272 0 q0 16 11.5 27.5 q11.5 11.5 28.5 11.5 q16 0 28 -11.5 q12 -11.5 12 -28.5 q0 -122 0 -244 q0 -17 -12 -28.5 q-12 -11.5 -28 -11.5 q-17 0 -28.5 11.5 q-11.5 11.5 -11.5 28.5 q0 94 0 188 q-233 0 -449 0 q-113 0 -232 0 q0 -94 0 -188 q0 -17 -11.5 -28.5 q-11.5 -11.5 -27.5 -11.5 q-17 0 -28.5 11.5 q-11.5 11.5 -11.5 28.5 q0 117 0 233 q0 17 11.5 28.5 q11.5 11.5 28.5 11.5 q16 0 27.5 -12 q11.5 -12 11.5 -28 q0 -8 0 -17 ZM917 140 l0 0 q12 0 20 -8.5 q8 -8.5 8 -19.5 q0 -12 -8 -20.5 q-8 -8.5 -20 -8.5 q-176 0 -351 0 l0 -364 q0 -16 -11.5 -27.5 q-11.5 -11.5 -28.5 -11.5 q-16 0 -27 11 l-138 0 q-11 0 -19.5 8.5 q-8.5 8.5 -8.5 19.5 q0 12 8.5 20.5 q8.5 8.5 19.5 8.5 l112 0 q6 0 10 4 q4 4 4 9 l0 322 q-199 0 -399 0 q-11 0 -19.5 8.5 q-8.5 8.5 -8.5 20.5 q0 11 8.5 19.5 q8.5 8.5 19.5 8.5 q133 0 266 0 q66 0 133 0 l0 138 q0 3 0 5 q1 1 1 2 q-4 21 11 36 l116 124 q-102 0 -167 0 q-65 0 -181 0 q-11 0 -19.5 8.5 q-8.5 8.5 -8.5 19.5 q0 12 8.5 20.5 q8.5 8.5 19.5 8.5 q97 0 152.5 0 q55.5 0 109.5 0 q54 0 139 0 l14 15 q13 11 28.5 11 q15.5 0 27.5 -12 q11 -13 11 -28.5 q0 -15.5 -12 -27.5 l-171 -183 l0 -137 q175 0 351 0 Z" /><glyph glyph-name="uni5B89" unicode="&#x5b89;" d="M533 -6 l0 0 q146 157 196 376 q-174 0 -344 0 q-44 -114 -101 -224 q125 -75 249 -152 ZM917 427 l0 0 q11 0 19.5 -8.5 q8.5 -8.5 8.5 -20.5 q0 -11 -8.5 -19.5 q-8.5 -8.5 -19.5 -8.5 q-52 0 -102 0 q-52 -246 -217 -417 q153 -97 301 -202 q14 -11 16 -27 q2 -16 -9 -29 q-12 -13 -29 -15 q-17 -2 -32 9 q-149 107 -301 212 q-182 -158 -443 -220 q-22 -4 -33 9 q-11 13 -7.5 29 q3.5 16 24.5 22 q234 56 396 202 q-111 76 -227 146 q-2 -4 -5 -8 q-2 -5 -5 -10 q-9 -15 -25.5 -19.5 q-16.5 -4.5 -32.5 2.5 q-16 9 -21.5 24 q-5.5 15 3.5 30 q72 127 125 262 q-37 0 -75 0 q-18 0 -38 0 q-28 0 -58 0 q-11 0 -19.5 8.5 q-8.5 8.5 -8.5 19.5 q0 12 8.5 20.5 q8.5 8.5 19.5 8.5 q66 0 130 0 q31 0 62 0 q30 79 53 160 q5 16 20 24 q15 8 33 4 q18 -4 27 -18 q9 -14 4 -30 q-20 -71 -45 -140 q167 0 334 0 q87 0 177 0 ZM894 479 l0 0 q-16 0 -28 12 q-12 12 -12 28 q0 82 0 195 q-240 0 -465 0 q-118 0 -238 0 q0 -95 0 -195 q0 -16 -12 -28 q-12 -12 -28 -12 q-16 0 -28 12 q-12 12 -12 28 q0 51 0 118 q0 67 0 123 q0 17 12 28 q12 11 28 11 q16 0 28 -11.5 q12 -11.5 12 -27.5 q0 -8 0 -17 q0 11 8 19.5 q8 8.5 20 8.5 q162 0 315 0 q-9 4 -15 12 q-17 27 -34 54 q-15 25 -30 50 q-10 16 -2.5 29 q7.5 13 22.5 16 q15 3 28 -10 l79 -92 q10 -14 7.5 -29.5 q-2.5 -15.5 -15.5 -26.5 q-2 -1 -5 -2 q-1 0 -2 -1 q161 0 327 0 q0 0 0 0 q0 0 0 0 q0 17 12 28.5 q12 11.5 28 11.5 q16 0 28 -12 q12 -12 12 -28 q0 -54 0 -124 q0 -70 0 -128 q0 -16 -12 -28 q-12 -12 -28 -12 Z" /><glyph glyph-name="uni60F3" unicode="&#x60f3;" d="M297 165 l0 0 q-16 0 -27.5 11.5 q-11.5 11.5 -11.5 28.5 q0 186 0 421 q-42 -201 -129 -336 q-12 -17 -28 -15.5 q-16 1.5 -25 15 q-9 13.5 0 32.5 q51 92 83.5 204.5 q32.5 112.5 51.5 215.5 q-37 0 -71 0 q-12 0 -20.5 8.5 q-8.5 8.5 -8.5 19.5 q0 12 8.5 20.5 q8.5 8.5 20.5 8.5 q55 0 118 0 q0 38 0 96 q0 16 11.5 27.5 q11.5 11.5 27.5 11.5 q17 0 28.5 -11.5 q11.5 -11.5 11.5 -28.5 q0 -58 0 -95 q61 0 118 0 q12 0 20 -8.5 q8 -8.5 8 -20.5 q0 -11 -8 -19.5 q-8 -8.5 -20 -8.5 q-55 0 -118 0 q0 -173 0 -365 q0 -86 0 -172 q0 -17 -11.5 -28.5 q-11.5 -11.5 -28.5 -11.5 ZM854 795 l0 0 q-66 0 -121 0 q-55 0 -125 0 q0 -58 0 -144 l0 0 q0 12 8.5 20 q8.5 8 19.5 8 q66 0 115 0 q49 0 103 0 q0 72 0 116 ZM636 274 l0 0 q66 0 115 0 q49 0 103 0 q0 74 0 146 q-66 0 -122 0 q-56 0 -124 0 q0 -86 0 -174 l0 0 q0 11 8.5 19.5 q8.5 8.5 19.5 8.5 ZM854 477 l0 0 q0 73 0 146 q-66 0 -121 0 q-55 0 -125 0 q0 -87 0 -175 l0 0 q0 12 8.5 20.5 q8.5 8.5 19.5 8.5 q66 0 115 0 q49 0 103 0 ZM568 880 l0 0 q17 0 28.5 -12 q11.5 -12 11.5 -28 q0 -8 0 -16 l0 0 q0 11 8.5 19.5 q8.5 8.5 19.5 8.5 q66 0 115 0 q49 0 103 0 l0 0 q0 16 12 27.5 q12 11.5 28 11.5 q17 0 28.5 -11.5 q11.5 -11.5 11.5 -28.5 q0 -310 0 -634 q0 -16 -11.5 -27.5 q-11.5 -11.5 -28.5 -11.5 q-16 0 -28 11.5 q-12 11.5 -12 27.5 l0 0 q-66 0 -121 0 q-55 0 -125 0 q0 -16 -11.5 -27.5 q-11.5 -11.5 -28.5 -11.5 q-16 0 -27.5 11.5 q-11.5 11.5 -11.5 27.5 q0 335 0 624 q0 16 11.5 27.5 q11.5 11.5 27.5 11.5 ZM415 619 l0 0 q43 -139 92 -252 q6 -16 -1 -30 q-7 -14 -23 -20 q-16 -6 -30.5 1 q-14.5 7 -20.5 23 q-44 111 -77 260 q-4 21 8 32 q12 11 28 8.5 q16 -2.5 24 -22.5 ZM423 -319 l0 0 q-55 0 -94.5 37 q-39.5 37 -39.5 89 q0 88 0 152.5 q0 64.5 0 145.5 q0 16 12.5 28 q12.5 12 29.5 12 q17 0 29.5 -12 q12.5 -12 12.5 -28 q0 -94 0 -164 q0 -70 0 -157 q0 -19 14.5 -32.5 q14.5 -13.5 35.5 -13.5 l298 0 q12 0 21 8 q9 8 9 20 l0 126 q0 11 8.5 19.5 q8.5 8.5 21.5 8.5 q13 0 21.5 -8 q8.5 -8 8.5 -20 l0 -158 q0 -21 -15 -37 q-15 -16 -37 -16 l-336 0 ZM483 108 l0 0 q-10 20 -1.5 34 q8.5 14 25 16 q16.5 2 29.5 -16 q19 -30 41 -60 q32 -43 58 -87 q8 -15 3.5 -30.5 q-4.5 -15.5 -18.5 -23.5 q-15 -8 -30 -4 q-15 4 -24 19 q-19 33 -38 69 q-22 43 -45 83 ZM925 -118 l0 0 q-15 -8 -30 -4 q-15 4 -24 19 q-16 29 -32 60 q-24 49 -51 92 q-11 19 -2 33.5 q9 14.5 25.5 16.5 q16.5 2 29.5 -16 q19 -30 41 -60 q32 -43 58 -87 q8 -15 4 -30 q-4 -15 -19 -24 ZM115 -299 l0 0 q-16 -15 -32 -9.5 q-16 5.5 -21.5 21.5 q-5.5 16 9.5 32 q33 33 49 76 q16 43 16 90 l0 155 q0 16 11.5 27.5 q11.5 11.5 28.5 11.5 q16 0 27.5 -11.5 q11.5 -11.5 11.5 -27.5 l0 -155 q0 -63 -27.5 -115 q-27.5 -52 -72.5 -95 Z" /><glyph glyph-name="uni6211" unicode="&#x6211;" d="M89 519 l0 0 q-12 0 -20.5 8.5 q-8.5 8.5 -8.5 19.5 q0 12 8.5 20.5 q8.5 8.5 20.5 8.5 q90 0 185 0 l0 197 q-79 -24 -161 -43 q-21 -3 -31 10 q-10 13 -6.5 29 q3.5 16 23.5 22 q178 46 342 129 q15 7 30 1.5 q15 -5.5 23 -20.5 q6 -15 1 -30 q-5 -15 -20 -22 q-60 -28 -121 -50 q0 0 0 0 q0 0 0 0 l0 -223 q81 0 163 0 q41 0 82 0 q-8 163 -8 322 q0 18 11 27 q11 9 26 9 q14 0 25 -9 q11 -9 11 -27 q0 -159 10 -322 q109 0 214 0 q12 0 20 -8.5 q8 -8.5 8 -20.5 q0 -11 -8 -19.5 q-8 -8.5 -20 -8.5 q-102 0 -210 0 q17 -210 77 -409 q53 101 94 209 q6 16 20.5 22.5 q14.5 6.5 29.5 1.5 q16 -7 22.5 -21 q6.5 -14 1.5 -30 q-59 -157 -135 -279 q56 -143 149 -268 q10 -14 8 -30 q-2 -16 -15 -26 q-14 -10 -29.5 -7.5 q-15.5 2.5 -26.5 15.5 q-84 112 -138 238 q-75 -103 -173 -195 q-16 -14 -31.5 -8.5 q-15.5 5.5 -20.5 21.5 q-5 16 9 32 q104 108 183 235 q-82 241 -100 499 q-83 0 -166 0 q-42 0 -83 0 l0 -347 q69 41 135 87 q18 12 32.5 4 q14.5 -8 17.5 -24.5 q3 -16.5 -14 -30.5 q-85 -60 -171 -118 l0 -369 q0 -17 -12 -28.5 q-12 -11.5 -28 -11.5 q-16 0 -28 11 l-142 0 q-11 0 -19.5 8.5 q-8.5 8.5 -8.5 20.5 q0 11 8.5 19.5 q8.5 8.5 19.5 8.5 l117 0 q5 0 9 4 q4 4 4 10 l0 276 q-65 -41 -132 -77 q-15 -7 -30.5 -2 q-15.5 5 -23.5 19 q-7 15 -2.5 30 q4.5 15 19.5 24 q85 44 169 92 l0 394 q-94 0 -185 0 ZM788 848 l0 0 q11 5 22 1.5 q11 -3.5 18 -16.5 q9 -20 23.5 -50.5 q14.5 -30.5 26.5 -58.5 q12 -28 16 -40 q5 -16 -2 -30 q-7 -14 -23 -20 q-16 -4 -30 3 q-14 7 -20 23 q-4 11 -12.5 39.5 q-8.5 28.5 -18.5 60 q-10 31.5 -16 51.5 q-4 13 1.5 23 q5.5 10 14.5 14 Z" /><glyph glyph-name="uni8C61" unicode="&#x8c61;" d="M547 517 l0 0 q-14 -97 -57 -181 l324 0 l0 181 l-267 0 ZM244 336 l0 0 l161 0 q46 84 62 181 l-252 0 l0 -209 q0 0 1 0 q0 12 8 20 q8 8 20 8 ZM537 -251 l0 0 q5 0 9 4 q4 4 4 9 l0 518 l-93 0 q-116 -173 -307 -264 q-20 -8 -33.5 2 q-13.5 10 -13 27 q0.5 17 19.5 28 q150 74 246 207 l-154 0 q0 -17 -11.5 -28.5 q-11.5 -11.5 -27.5 -11.5 q-17 0 -28.5 11.5 q-11.5 11.5 -11.5 28.5 l0 288 q0 13 8 22 q-14 -4 -26 3.5 q-12 7.5 -15 21.5 q-3 14 9 27 q107 118 166 267 q7 15 22 21 q15 6 31 -1 q15 -7 20.5 -21.5 q5.5 -14.5 -0.5 -30.5 q-19 -44 -44 -85 l455 0 q2 4 4 8 q4 8 9 17 q8 16 26 22 q18 6 38 0 q19 -7 27 -21.5 q8 -14.5 1 -29.5 q-53 -97 -129 -184 q-15 -17 -35.5 -15.5 q-20.5 1.5 -32 15.5 q-11.5 14 0.5 32 q34 48 61 99 l-462 0 q-48 -69 -107 -130 q6 2 13 2 q16 0 27.5 -11.5 q11.5 -11.5 11.5 -27.5 l0 -23 q1 0 1 0 q0 12 8 20 q8 8 20 8 l570 0 l0 0 q0 17 11.5 28.5 q11.5 11.5 28.5 11.5 q16 0 27.5 -11.5 q11.5 -11.5 11.5 -28.5 l0 -293 q0 -17 -11.5 -28.5 q-11.5 -11.5 -27.5 -11.5 q-17 0 -28.5 11.5 q-11.5 11.5 -11.5 28.5 l-184 0 l0 -121 q9 2 18.5 -1.5 q9.5 -3.5 15.5 -15.5 q28 -53 60 -104 q46 54 88 110 q9 12 17 23 q17 20 38 15 q21 -5 30 -24.5 q9 -19.5 -9 -43.5 q-55 -63 -118 -117 q-6 -6 -12 -11 q0 -1 -1 -1 q0 0 0 0 q81 -115 177 -218 q11 -12 10.5 -28 q-0.5 -16 -12.5 -28 q-13 -11 -28.5 -10 q-15.5 1 -27.5 13 q-147 162 -246 357 l0 -355 q0 -16 -12 -27.5 q-12 -11.5 -28 -11.5 q-16 0 -28 11 l-165 0 q-11 0 -19.5 8.5 q-8.5 8.5 -8.5 19.5 q0 12 8.5 20.5 q8.5 8.5 19.5 8.5 l140 0 ZM100 -301 l0 0 q-21 -5 -32 7.5 q-11 12.5 -8.5 28.5 q2.5 16 22.5 24 q104 33 197 90.5 q93 57.5 174 130.5 q13 11 29 10 q16 -1 27 -13 q11 -13 10 -29 q-1 -16 -13 -27 q-179 -155 -406 -222 ZM435 141 l0 0 q12 11 28 11 q16 0 28 -12 q11 -12 11 -28 q0 -16 -12 -28 q-152 -145 -346 -223 q-21 -8 -33.5 3 q-12.5 11 -12 27.5 q0.5 16.5 19.5 26.5 q179 82 317 223 Z" /><glyph glyph-name="uni91CC" unicode="&#x91cc;" d="M248 276 l0 0 l214 0 l0 238 l-242 0 l0 -266 l0 0 q0 11 8 19.5 q8 8.5 20 8.5 ZM462 808 l0 0 l-242 0 l0 -266 l0 0 q0 12 8 20 q8 8 20 8 l214 0 l0 238 ZM784 808 l0 0 l-242 0 l0 -238 l242 0 l0 238 ZM542 276 l0 0 l242 0 l0 238 l-242 0 l0 -238 ZM59 -289 l0 0 q0 12 8.5 20.5 q8.5 8.5 20.5 8.5 l374 0 l0 0 l0 229 l-342 0 q-11 0 -19.5 8 q-8.5 8 -8.5 20 q0 12 8.5 20.5 q8.5 8.5 19.5 8.5 l342 0 l0 193 l-242 0 l0 0 q0 -16 -11.5 -27.5 q-11.5 -11.5 -28.5 -11.5 q-16 0 -28 11.5 q-12 11.5 -12 27.5 l0 640 q0 17 12 28.5 q12 11.5 28 11.5 q17 0 28.5 -11.5 q11.5 -11.5 11.5 -28.5 l0 -23 l0 0 q0 12 8 20.5 q8 8.5 20 8.5 l536 0 q0 16 11.5 27.5 q11.5 11.5 28.5 11.5 q16 0 28 -11.5 q12 -11.5 12 -27.5 l0 -646 q0 -16 -12 -27.5 q-12 -11.5 -28 -11.5 q-17 0 -28.5 11.5 q-11.5 11.5 -11.5 27.5 l0 0 l-242 0 l0 -193 l342 0 q11 0 19.5 -8.5 q8.5 -8.5 8.5 -20.5 q0 -12 -8.5 -20 q-8.5 -8 -19.5 -8 l-342 0 l0 -229 l0 0 l374 0 q12 0 20.5 -8.5 q8.5 -8.5 8.5 -20.5 q0 -11 -8.5 -19.5 q-8.5 -8.5 -20.5 -8.5 l-828 0 q-12 0 -20.5 8.5 q-8.5 8.5 -8.5 19.5 Z" /><glyph glyph-name="quotesingle" unicode="&#39;" d="M103 701 l0 0 q-17 0 -28.5 11 q-11.5 11 -11.5 27 q0 36 0 44 q0 -1 0 0.5 q0 1.5 0 5.5 q0 10 0 44 q0 16 11.5 27 q11.5 11 28.5 11 q16 0 27.5 -11 q11.5 -11 11.5 -27 q0 -36 0 -44 q0 1 0 -0.5 q0 -1.5 0 -5.5 q0 -11 0 -44 q0 -16 -11.5 -27 q-11.5 -11 -27.5 -11 Z" /><glyph glyph-name="hyphen" unicode="-" d="M481 326 l-349 0 q-22 0 -35 12 q-13 12 -13 28 q0 17 13 28.5 q13 11.5 35 11.5 l349 0 q12 0 25 -11.5 q13 -11.5 13 -28.5 q0 -16 -13 -28 q-13 -12 -25 -12 Z" /><glyph glyph-name="one" unicode="1" d="M153 720 l0 0 q-20 -8 -33 1.5 q-13 9.5 -13.5 25 q-0.5 15.5 17.5 25.5 q53 30 102 68 q15 12 30 23 q1 0 2 1 q1 0 1 1 q4 2 9 3 q3 1 6 2 q2 0 3 0 q1 1 3 1 q1 0 1 -1 q1 0 2 0 q3 0 6 -1 q0 0 1 0 q0 0 0 0 q4 -1 7 -3 q3 -1 4 -2 q1 -1 2 -1 q3 -3 7 -6 q0 0 0 0 q1 -1 1 -1 q1 -1 1 -2 q1 -1 1 -2 q2 -3 4 -7 q1 -4 1 -7 q1 -1 1 -2 q0 -1 0 -3 q0 -59 0 -301 q0 -242 0 -484.5 q0 -242.5 0 -329.5 q0 -15 -11.5 -26 q-11.5 -11 -27.5 -11 q-17 0 -28.5 11 q-11.5 11 -11.5 26 q0 55 0 274.5 q0 219.5 0 464.5 q0 186 0 307 q-43 -24 -87 -44 Z" /><glyph glyph-name="two" unicode="2" d="M759 -228 l0 0 q12 0 20 -8 q8 -8 8 -19 q0 -11 -8 -19 q-8 -8 -20 -8 q-327 0 -619 0 l0 0 q0 -15 -11.5 -26 q-11.5 -11 -28.5 -11 q-16 0 -27.5 11 q-11.5 11 -11.5 26 q0 88 0 278 q0 190 0 307 q0 15 11.5 26 q11.5 11 27.5 11 q17 0 28.5 -11 q11.5 -11 11.5 -26 q0 -12 0 -27 q0 11 8.5 19 q8.5 8 19.5 8 q157 0 267 0 q110 0 245 0 q0 96 0 238 q0 142 0 251 q-203 0 -387 0 q-99 0 -204 0 q-12 0 -20 8 q-8 8 -8 19 q0 11 8 19 q8 8 20 8 q208 0 390 0 q98 0 201 0 q0 0 0 0 q0 15 11.5 26.5 q11.5 11.5 27.5 11.5 q17 0 28.5 -11.5 q11.5 -11.5 11.5 -26.5 q0 -59 0 -176.5 q0 -117.5 0 -235.5 q0 -118 0 -185 q0 -16 -11.5 -27 q-11.5 -11 -28.5 -11 q-16 0 -27.5 11 q-11.5 11 -11.5 27 q-158 0 -289 0 q-71 0 -145 0 q-13 0 -26 0 q-17 0 -34 0 q-22 0 -46 0 q0 -102 0 -251 q0 -149 0 -253 q0 11 8.5 19 q8.5 8 19.5 8 q199 0 347 0 q85 0 179 0 q31 0 65 0 Z" /><glyph glyph-name="three" unicode="3" d="M96 -282 l0 0 q-12 0 -20.5 8 q-8.5 8 -8.5 19 q0 11 8.5 19 q8.5 8 20.5 8 q323 0 607 0 q0 144 0 477 q-158 0 -291.5 0 q-133.5 0 -287.5 0 q-12 0 -20 7.5 q-8 7.5 -8 19.5 q0 11 8 19 q8 8 20 8 q162 0 295.5 0 q133.5 0 283.5 0 q0 295 0 489 q-208 0 -383 0 q-98 0 -207 0 q-12 0 -20.5 8 q-8.5 8 -8.5 19 q0 11 8.5 19 q8.5 8 20.5 8 q213 0 386 0 q98 0 204 0 q0 15 11.5 26.5 q11.5 11.5 28.5 11.5 q16 0 27.5 -11.5 q11.5 -11.5 11.5 -26.5 q0 -59 0 -304.5 q0 -245.5 0 -490.5 q0 -245 0 -333 q0 -15 -11.5 -26 q-11.5 -11 -27.5 -11 q-17 0 -28.5 11 q-11.5 11 -11.5 26 q-319 0 -607 0 Z" /><glyph glyph-name="four" unicode="4" d="M816 82 l0 0 q12 0 20 -8 q8 -8 8 -19 q0 -11 -8 -19 q-8 -8 -20 -8 q-118 0 -240 0 q0 -225 0 -310 q0 -15 -12 -26 q-12 -11 -28 -11 q-16 0 -28 11 q-12 11 -12 26 q0 58 0 310 q-178 0 -352 0 q0 0 0 0 q0 -16 -12 -27 q-12 -11 -28 -11 q-16 0 -28 11 q-12 11 -12 27 q0 58 0 218 q0 160 0 320 q0 160 0 234 q0 16 12 27 q12 11 28 11 q16 0 28 -11 q12 -11 12 -27 q0 -49 0 -177 q0 -69 0 -149 q0 -112 0 -223 q0 -121 0 -196 q0 0 0 0 q0 11 8 19 q8 8 20 8 q169 0 324 0 q0 227 0 455 q0 228 0 309 q0 15 12 26.5 q12 11.5 28 11.5 q16 0 28 -11.5 q12 -11.5 12 -26.5 q0 -56 0 -284 q0 -228 0 -480 q70 0 142 0 q37 0 75 0 q1 0 3 0 q1 0 3 0 q1 0 3 0 q2 0 3 0 q2 0 4 0 q2 0 3 0 q2 0 4 0 Z" /><glyph glyph-name="five" unicode="5" d="M81 -280 l0 0 q-12 0 -20.5 8.5 q-8.5 8.5 -8.5 20.5 q0 11 8.5 19.5 q8.5 8.5 20.5 8.5 q164 0 296.5 0 q132.5 0 286.5 0 q0 104 0 258 q0 154 0 270 q-150 0 -257 0 q-107 0 -247 0 l0 0 q0 -17 -11.5 -28.5 q-11.5 -11.5 -28.5 -11.5 q-16 0 -27.5 11.5 q-11.5 11.5 -11.5 28.5 q0 65 0 178 q0 113 0 225 q0 86 0 145 q0 16 11.5 28 q11.5 12 27.5 12 q17 0 28.5 -12 q11.5 -12 11.5 -28 q0 -28 0 -67 q0 0 0 0 q0 12 8.5 20.5 q8.5 8.5 19.5 8.5 q168 0 285 0 q117 0 270 0 q12 0 20.5 -8.5 q8.5 -8.5 8.5 -20.5 q0 -12 -8.5 -20 q-8.5 -8 -20.5 -8 q-163 0 -296.5 0 q-133.5 0 -286.5 0 q0 -138 0 -310 q0 -65 0 -115 q0 12 8.5 20 q8.5 8 19.5 8 q162 0 252.5 0 q90.5 0 224.5 0 q2 15 13 25 q11 10 26 10 q16 0 27.5 -12 q11.5 -12 11.5 -28 q0 -62 0 -187.5 q0 -125.5 0 -251 q0 -125.5 0 -197.5 q0 -16 -11.5 -27.5 q-11.5 -11.5 -27.5 -11.5 q-17 0 -28.5 11.5 q-11.5 11.5 -11.5 27.5 l0 0 q-162 0 -295 0 q-133 0 -288 0 Z" /><glyph glyph-name="six" unicode="6" d="M704 302 l0 0 q-154 0 -277.5 0 q-123.5 0 -269.5 0 q0 -171 0 -323 q0 -152 0 -230 q0 11 8 19.5 q8 8.5 20 8.5 q210 0 330 0 q84 0 189 0 q0 103 0 256.5 q0 153.5 0 268.5 ZM117 -319 l0 0 q-16 0 -28 11.5 q-12 11.5 -12 27.5 q0 6 0 145 q0 139 0 333.5 q0 194.5 0 373.5 q0 179 0 277 q0 17 12 28.5 q12 11.5 28 11.5 q17 0 28.5 -11.5 q11.5 -11.5 11.5 -28.5 q0 -8 0 -21 q0 12 8 20 q8 8 20 8 q168 0 291.5 0 q123.5 0 278.5 0 q12 0 20.5 -8 q8.5 -8 8.5 -20 q0 -12 -8.5 -20 q-8.5 -8 -20.5 -8 q-215 0 -391 0 q-99 0 -207 0 q0 -58 0 -156 q0 -54 0 -115 q0 -94 0 -199 q0 12 8 20.5 q8 8.5 20 8.5 q163 0 270.5 0 q107.5 0 249.5 0 q3 14 13.5 24 q10.5 10 25.5 10 q16 0 28 -11.5 q12 -11.5 12 -28.5 q0 -61 0 -186 q0 -125 0 -250 q0 -125 0 -197 q0 -16 -12 -27.5 q-12 -11.5 -28 -11.5 q-16 0 -28 11.5 q-12 11.5 -12 27.5 q-154 0 -277.5 0 q-123.5 0 -269.5 0 q0 -16 -11.5 -27.5 q-11.5 -11.5 -28.5 -11.5 Z" /><glyph glyph-name="d" unicode="d" d="M576 391 l0 0 q-153 0 -234.5 0 q-81.5 0 -213.5 0 q0 -121 0 -318 q0 -197 0 -324 l0 0 q0 12 8.5 20 q8.5 8 19.5 8 q6 0 11 0 q104 0 157 0 q53 0 105 0 q52 0 147 0 q0 91 0 259.5 q0 168.5 0 354.5 ZM88 487 l0 0 q17 0 28.5 -11.5 q11.5 -11.5 11.5 -28.5 q0 -12 0 -28 l0 0 q0 12 8.5 20 q8.5 8 19.5 8 q6 0 11 0 q104 0 157 0 q53 0 105 0 q52 0 147 0 q0 143 0 252.5 q0 109.5 0 151.5 q0 17 11.5 28.5 q11.5 11.5 27.5 11.5 q17 0 28.5 -11.5 q11.5 -11.5 11.5 -28.5 q0 -61 0 -306 q0 -245 0 -490 q0 -245 0 -335 q0 -16 -11.5 -27.5 q-11.5 -11.5 -28.5 -11.5 q-16 0 -27.5 11.5 q-11.5 11.5 -11.5 27.5 q0 0 0 0 q0 0 0 1 q-153 0 -234.5 0 q-81.5 0 -213.5 0 q0 -1 0 -1 q0 0 0 0 q0 -16 -11.5 -27.5 q-11.5 -11.5 -28.5 -11.5 q-16 0 -27.5 11.5 q-11.5 11.5 -11.5 27.5 q0 68 0 236.5 q0 168.5 0 330.5 q0 105 0 160 q0 17 11.5 28.5 q11.5 11.5 27.5 11.5 Z" /><glyph glyph-name="o" unicode="o" d="M388 486 l0 0 l2 0 q0 0 -1 0 q0 0 0 0 q0 0 -1 0 q0 0 0 0 ZM390 -319 l0 0 l-2 0 q0 0 0 0 q1 0 1 0 q0 0 0 0 q1 0 1 0 ZM389 407 l0 0 q-57 -1 -99.5 -23 q-42.5 -22 -79.5 -61 q-84 -84 -84 -201 l0 -77 q0 -118 84 -201 q37 -39 79.5 -61 q42.5 -22 99.5 -23 q57 1 101 23 q44 22 82 61 q83 83 83 201 l0 77 q0 117 -83 201 q-38 39 -82 61 q-44 22 -101 23 ZM47 122 l0 0 q0 75 28.5 141 q28.5 66 78.5 116 q48 50 104.5 78 q56.5 28 130.5 29 q74 -1 132 -29 q58 -28 107 -78 q50 -50 78.5 -116 q28.5 -66 28.5 -141 l0 -77 q0 -75 -28.5 -141.5 q-28.5 -66.5 -78.5 -115.5 q-49 -50 -107 -78.5 q-58 -28.5 -132 -28.5 q-74 0 -130.5 28.5 q-56.5 28.5 -104.5 78.5 q-50 49 -78.5 115.5 q-28.5 66.5 -28.5 141.5 l0 77 Z" /><glyph glyph-name="u" unicode="u" d="M49 -280 l0 0 q0 68 0 236 q0 168 0 330 q0 105 0 160 q0 17 12 28.5 q12 11.5 28 11.5 q16 0 28 -11.5 q12 -11.5 12 -28.5 q0 -57 0 -191.5 q0 -134.5 0 -276 q0 -141.5 0 -229.5 q0 11 8 19.5 q8 8.5 20 8.5 q13 0 26 0 q6 0 12 0 q2 0 5 0 q88 0 134.5 0 q46.5 0 96.5 0 q50 0 142 0 q0 130 0 343.5 q0 213.5 0 325.5 q0 17 11.5 28.5 q11.5 11.5 28.5 11.5 q16 0 28 -11.5 q12 -11.5 12 -28.5 q0 -61 0 -208.5 q0 -147.5 0 -295 q0 -147.5 0 -222.5 q0 -16 -12 -28 q-12 -12 -28 -12 q-17 0 -28.5 12 q-11.5 12 -11.5 28 q-104 0 -165.5 0 q-61.5 0 -122 0 q-60.5 0 -156.5 0 q0 -16 -12 -28 q-12 -12 -28 -12 q-16 0 -28 12 q-12 12 -12 28 Z" /><glyph glyph-name="y" unicode="y" d="M55 469 l0 0 q-10 14 -8 29.5 q2 15.5 15 26.5 q14 10 29.5 8 q15.5 -2 26.5 -15 q63 -82 161 -216 q95 -129 157 -210 q80 174 142 309 q62 135 82 177 q7 15 22 20.5 q15 5.5 30 -1.5 q15 -7 20.5 -22 q5.5 -15 -1.5 -31 q-22 -48 -95 -207 q-73 -159 -163 -355 q-89 -195 -162 -353 q-73 -158 -95 -206 q-7 -15 -22 -20.5 q-15 -5.5 -31 1.5 q-15 7 -20 22 q-5 15 1 30 q22 46 91 197 q69 151 156 340 q7 15 14 31 q-17 1 -28 15 q-62 81 -161 215 q-98 133 -161 215 Z" /></font>
</defs>
</svg>
